<mxfile host="65bd71144e">
    <diagram id="poRkc7PlUlhEA70JiAO8" name="system_diagram">
        <mxGraphModel dx="686" dy="747" grid="1" gridSize="10" guides="1" tooltips="1" connect="1" arrows="1" fold="1" page="1" pageScale="1" pageWidth="827" pageHeight="1169" math="0" shadow="0">
            <root>
                <mxCell id="0"/>
                <mxCell id="1" parent="0"/>
                <mxCell id="3" value="https://res.cloudinary.com/canonical/image/fetch/f_auto,q_auto,fl_sanitize,w_800,h_583/https://dashboard.snapcraft.io/site_media/appmedia/2020/02/logo-square.png" style="sketch=0;outlineConnect=0;gradientColor=none;html=1;whiteSpace=wrap;fontSize=12;fontStyle=0;shape=mxgraph.aws4.group;grIcon=mxgraph.aws4.group_aws_cloud;strokeColor=#AAB7B8;fillColor=none;verticalAlign=top;align=left;spacingLeft=30;fontColor=#AAB7B8;dashed=0;" parent="1" vertex="1">
                    <mxGeometry x="150" y="100" width="970" height="720" as="geometry"/>
                </mxCell>
                <mxCell id="4" value="VPC" style="sketch=0;outlineConnect=0;gradientColor=none;html=1;whiteSpace=wrap;fontSize=12;fontStyle=0;shape=mxgraph.aws4.group;grIcon=mxgraph.aws4.group_vpc;strokeColor=#879196;fillColor=none;verticalAlign=top;align=left;spacingLeft=30;fontColor=#879196;dashed=0;" parent="1" vertex="1">
                    <mxGeometry x="240" y="190" width="740" height="600" as="geometry"/>
                </mxCell>
                <mxCell id="6" value="Availability zone" style="sketch=0;outlineConnect=0;gradientColor=none;html=1;whiteSpace=wrap;fontSize=12;fontStyle=0;shape=mxgraph.aws4.group;grIcon=mxgraph.aws4.group_availability_zone;strokeColor=#545B64;fillColor=none;verticalAlign=top;align=left;spacingLeft=30;fontColor=#545B64;dashed=1;" parent="1" vertex="1">
                    <mxGeometry x="284" y="240" width="306" height="500" as="geometry"/>
                </mxCell>
                <mxCell id="9" value="Public subnet" style="points=[[0,0],[0.25,0],[0.5,0],[0.75,0],[1,0],[1,0.25],[1,0.5],[1,0.75],[1,1],[0.75,1],[0.5,1],[0.25,1],[0,1],[0,0.75],[0,0.5],[0,0.25]];outlineConnect=0;gradientColor=none;html=1;whiteSpace=wrap;fontSize=12;fontStyle=0;container=1;pointerEvents=0;collapsible=0;recursiveResize=0;shape=mxgraph.aws4.group;grIcon=mxgraph.aws4.group_security_group;grStroke=0;strokeColor=#248814;fillColor=#E9F3E6;verticalAlign=top;align=left;spacingLeft=30;fontColor=#248814;dashed=0;" parent="1" vertex="1">
                    <mxGeometry x="330" y="280" width="550" height="130" as="geometry"/>
                </mxCell>
                <mxCell id="12" value="Private subnet" style="points=[[0,0],[0.25,0],[0.5,0],[0.75,0],[1,0],[1,0.25],[1,0.5],[1,0.75],[1,1],[0.75,1],[0.5,1],[0.25,1],[0,1],[0,0.75],[0,0.5],[0,0.25]];outlineConnect=0;gradientColor=none;html=1;whiteSpace=wrap;fontSize=12;fontStyle=0;container=1;pointerEvents=0;collapsible=0;recursiveResize=0;shape=mxgraph.aws4.group;grIcon=mxgraph.aws4.group_security_group;grStroke=0;strokeColor=#147EBA;fillColor=#E6F2F8;verticalAlign=top;align=left;spacingLeft=30;fontColor=#147EBA;dashed=0;" parent="1" vertex="1">
                    <mxGeometry x="330" y="420" width="550" height="130" as="geometry"/>
                </mxCell>
                <mxCell id="7" value="Availability zone" style="sketch=0;outlineConnect=0;gradientColor=none;html=1;whiteSpace=wrap;fontSize=12;fontStyle=0;shape=mxgraph.aws4.group;grIcon=mxgraph.aws4.group_availability_zone;strokeColor=#545B64;fillColor=none;verticalAlign=top;align=left;spacingLeft=30;fontColor=#545B64;dashed=1;" parent="1" vertex="1">
                    <mxGeometry x="630" y="240" width="306" height="500" as="geometry"/>
                </mxCell>
                <mxCell id="30" style="edgeStyle=none;html=1;entryX=0.5;entryY=0;entryDx=0;entryDy=0;endArrow=none;endFill=0;strokeColor=default;" parent="1" source="15" target="17" edge="1">
                    <mxGeometry relative="1" as="geometry"/>
                </mxCell>
                <mxCell id="31" style="edgeStyle=none;html=1;entryX=0.5;entryY=0;entryDx=0;entryDy=0;endArrow=none;endFill=0;strokeColor=default;" parent="1" source="15" edge="1">
                    <mxGeometry relative="1" as="geometry">
                        <mxPoint x="765" y="450" as="targetPoint"/>
                    </mxGeometry>
                </mxCell>
                <mxCell id="15" value="" style="sketch=0;outlineConnect=0;fontColor=#232F3E;gradientColor=none;fillColor=#4D27AA;strokeColor=none;dashed=0;verticalLabelPosition=bottom;verticalAlign=top;align=center;html=1;fontSize=12;fontStyle=0;aspect=fixed;pointerEvents=1;shape=mxgraph.aws4.application_load_balancer;" parent="1" vertex="1">
                    <mxGeometry x="576" y="310" width="58" height="58" as="geometry"/>
                </mxCell>
                <mxCell id="19" value="" style="group" parent="1" vertex="1" connectable="0">
                    <mxGeometry x="392" y="450" width="208" height="90" as="geometry"/>
                </mxCell>
                <mxCell id="23" value="" style="sketch=0;outlineConnect=0;fontColor=#232F3E;gradientColor=none;fillColor=#D45B07;strokeColor=none;dashed=0;verticalLabelPosition=bottom;verticalAlign=top;align=center;html=1;fontSize=12;fontStyle=0;aspect=fixed;pointerEvents=1;shape=mxgraph.aws4.ecs_task;" parent="19" vertex="1">
                    <mxGeometry width="15.42" height="20" as="geometry"/>
                </mxCell>
                <mxCell id="61" value="" style="group" parent="19" vertex="1" connectable="0">
                    <mxGeometry width="208" height="90" as="geometry"/>
                </mxCell>
                <mxCell id="17" value="&lt;div&gt;&lt;span&gt;&amp;nbsp; &amp;nbsp; &amp;nbsp;ECS Task&lt;/span&gt;&lt;/div&gt;" style="outlineConnect=0;gradientColor=none;html=1;whiteSpace=wrap;fontSize=12;fontStyle=0;strokeColor=#FFB366;fillColor=none;verticalAlign=top;align=left;fontColor=#858B94;spacingTop=3;" parent="61" vertex="1">
                    <mxGeometry width="168" height="90" as="geometry"/>
                </mxCell>
                <mxCell id="59" value="color app" style="sketch=0;outlineConnect=0;dashed=0;verticalLabelPosition=bottom;verticalAlign=top;align=center;html=1;fontSize=12;fontStyle=0;aspect=fixed;shape=mxgraph.aws4.resourceIcon;resIcon=mxgraph.aws4.container_1;labelBackgroundColor=none;fillColor=none;" parent="61" vertex="1">
                    <mxGeometry x="22" y="30" width="40" height="40" as="geometry"/>
                </mxCell>
                <mxCell id="60" value="FireLens" style="sketch=0;outlineConnect=0;fontColor=#232F3E;gradientColor=none;strokeColor=#232F3E;fillColor=none;dashed=0;verticalLabelPosition=bottom;verticalAlign=top;align=center;html=1;fontSize=12;fontStyle=0;aspect=fixed;shape=mxgraph.aws4.resourceIcon;resIcon=mxgraph.aws4.container_2;" parent="61" vertex="1">
                    <mxGeometry x="108" y="30" width="40" height="40" as="geometry"/>
                </mxCell>
                <mxCell id="100" value="" style="shape=image;imageAspect=0;aspect=fixed;verticalLabelPosition=bottom;verticalAlign=top;image=data:image/png,iVBORw0KGgoAAAANSUhEUgAAAyAAAAJHCAMAAABfKMIMAAACfFBMVEVHcEwAAAAtg4YAAAAAAAAAAAAtfn8xtKUAAAAAAAAAAAAAAQIAAAAwuZ8dVlcwuZ8CBAgAAAAwuZ4AAAAAAAAAAABNrZQlmLkAAAAwuJ4yt50emcYAAAAAAAAxtJ0wt54xt55WtYkcnccwV5Qco80wuZ4Yn8YwuJ4AAAAimssAAAAhjrUxaKQwtp4Un7cUoLcudq+PwGo1a64ahKweoc9Yq4UvdbIfrtmjx2AeutwestoZmralyF9/unInfbRerYEthsYjnc86a64tUIl4uHWpyV0DrMBhr4EguOIegK0kmcswtJ4EqsAqSX0QHC4AAAAwuZ4AuLtOXKgRiqg6Z7AXhak3dbhEcLc4crYZg6k4b7Ugfao5bLNKZK40gr9IZ7A1gb5eroFksH40h8FarIMxkMZqsntGbbVHarM2ebo1fr02e7tMX6o2d7kdgKo8opU0hcAod6syoJ5DdLoCtLszisMkeqo5abFNp4pCo485oZc2oZpWq4UTiKhQqIgqveZFpI5TqYdKposquuQGrLszjMQUh6gptuJwtHlBd7wnnqgsc6sfnbA9gcNAer4/o5IuoKE0g78rweg/fcBLYawBtrs7hMVHpY0jnawrn6QDsrt1tncpsuAEr7sYnLU+f8IbgakziMI6iMh4t3UzbawwcKword0nqNqDu284aawyjsX///82kM4Um7uTwWg4jMsmodZ+uXI0ldKJvW2AunGXw2aMv2suotuQwGmlyF+fxmIqquExm9Z7uHOrylwlmdGGvG4nseabxGS0zlgjuOskkswkiscgv/EuY6AkhMENpLgrfrQaqqwPt8lhj8jH2OyPrteqw+KDp9R/p9VQofF6AAAATnRSTlMA1wruqJkEGovMWDUvuRF6HmbcunrJJC7gmmJFRvhLyos5Xvx285HlxL1w/l6pzK2BVdzy0tuqpnX65+3X0sF63PX11pWo77TG3uXU25xOnBtFAAA+l0lEQVR42uydz0sjaR7GGw96WGjmZA65WSEQNkyLK0rbIK1eemW9SHAkRBOQxti2EJEmxz0tjTQK0uJJdlDyg1oaDF5ySCAIJlMhMIf5i/b9VVXvm1TFiiZtKj4fo4e5TcaPz/f5vm9lXr0aEqZXtJhurKz97RUAoI1JLZaNcbS1X/B+ANDmh4S+EsVbAoCN4gdiBAC1f7T7QeetlbUxvDMAOAWIGSOv8d4AMKHH3FjBqAVePGuufrBRC40dvGxWYt3RVhAjAIK4shzTV3B+CCBINzBpgZeK9rAeWYIGRQASxF0Quvcdx7sFIIjTNosqksgaa0E4Al4Ya54CRKCthHB8CF4UUQ+CcEcS2UQ8rs2EJ/CmgZfDmOE1QRLMkaw2sxjA2wZeDJq3CsIjhL5yWguKALR0xwChr4SuNaEIQAmxKoiVIcwPgmE03wfx3gHMWEqCSEARgBlL2mHxAJGIa4dQBLz4GUsKkDZB4lmtCUXAyDOudd9hxRwDhAgSj5M5C4qAFz1juQcIw8gTRbDRAqPML/pjKghXhLT1VrO5OIl3EbzICLHvmXQmiEgRncxZzTlcQAGjyljUwzF6RwUxhyxRRZpzuMYIRtUQrfuzIO4VhLO5YRw2G80wPksLjCTjax52WFnXAIlvbpIUISHSDOF5ETCKBLTuFSThtORNSIJsxjdzBgkR7HzBKCaIa0133WG1JQiFzFmNRgM7XzCCTGvdHyZMdJ+wBGTOIoosYqEFRi5DtC4VJJbIdu/oNrlvxJAG2joYNea0Bx5H71jyJpwEISHSIoY0p/COgpFiUnOrIA8ueRVBNjbiRgNVBIwcM1pv90ycA2SDfrGy3oigioARImroLkusmOOSN+4mCOGAlfXGNE5FwOiwrPV0z6RLghBD8qysX+FUBIwM07rhUtK9VxBmhxwi73HNF4wI4x0R0nsFMRPEDhGsfMGoMKdrziNWwmsF4XoIQ1iI1BuNL1j5gpHgdbsgvKI7HKN3SRBLD8LeJgmROuYsMCIz1lxMc7mo2CVBOgYs25CDg408aSL1eiOMfRbwP5Mxpadn3Tt6Iu4WIHKCHBBDSIjUaYpgnwX8z4wSIa5L3oSnCkL9oOSb1JD6e5wbAr8TiMmGiHsmDhWkS4KoAcKgIUIdwZwF/B8h9nn6Q59n4qGCUPbI97dmnbKK+1nA30SlCHH7OJOOhwmVCtIhyMEeYfOQZUg9gkMR4PMIsXa9vTxMaB2jO0xYzJADOmYRGjgUAf6OEN0csqQllrcJq22JpQiyt5dvMUNQ1oHPI0QMWdlsjw8TOix5JUH29w++cUPq03iXgZ8jhA9Zvd/kda4gIkCoI6Kro6wDH7McixlGl47e/SavW4CwDNk/OBQhgo0v8HGE0CErm7X3vB4D5GFB9vdpV6+R10ecrAN/Mk4ihAxZrhexPAaIiyD7LdrVa+QLG1/g3wjRtUdWEHc/hCD7+4fCkCVsfIEfE4S0ED1m6Fm3U5DHVxDOJ3YkghABPo8Qlw/8eVIFYYJ82msxP2q1OkIE+JAZ05BsNtvDw4SOgux1CkIUOeR+1GqzODYE/owQ3XB7FORpFYToQQ1pUD3IN5oI8GeExDT9oQTZfEwFIXZQWs3aLVUEIQL8R5BGSEx76Kaie4B0rSCc/UM2Y1FCeMeB3yLEqiGeHyb0PGGZHAo/ECLAbwRYhDBDvD9M2MuERUntNU1DamgiwEeM80UWOw3x/DBhz4LQJlJDiAA/MikiRM/28DBhLxWERcinlG0IQgT4icUYL+oJTwnymAoiMoQUkWqtVkKIAF8xQY9C6LMh3v6/OY+asFIpmiENlh9V4gjORIB/mIt1GvL0CqLGR4o5wqt6iToSeY03HviD1zGRIcbjK4jzPRMlQqghLWIHmbFK5OcSnhMBPtlkTevMD93QPX2eySN2WEKQFK/qVBHyNY+HDYE/DFk2a0jW0+eZ9C5IyoJUdTJiET9IiuCJdeAPQaI8QWJWDfFY0b1XEJtPDTNBiCK4egJ8wQw3xCrq/bjJ6yJIKtVkHaRaosyiqwMfREiAz1hZYcjTHybsIshZqlmiq94SG7Sw8AV+MGRGNzH69DCha4Bsb6dafMBiGVKKoKuDoWeC3TcxDenDw4TdBNnOcEPEmIWuDoafOepGVufL3kFWkG3KWctOEHR14APGlrkezJA+V5D2ANk+O8u06pIhJXzqCRh2pnmE5NiQNdAKQvwgbNdL1pBVKuJcHQw7y0SNHIuRnJYYWAXZNgU5O2uY+VGmP8L4LwCGmijrIDmaITmtjzd53QTJ2IYU6Qt34MFwY656iSO2IZv9ryAiQDKZs6apB1PE/2PW+GQgGp2mzJHvaDDwzM5PTIXnP8wuLCy8ffv269d7GfJPFhY+hKfwV8k7AaGHkiH9vWeiCmIawhOkXPTxmDUWnF6c2U2n07uE3xhH9OtoP/V+cTrwU496AqF5IsXbwuUd4/7unr4Ef9z/obKAX3zPzDE3mB9WhvThYUKXCpKhNHkDYYaQL1/ePBmLLi4nk8k0Y5cZsmsbcnR0TCCahCZ+hhjFQqFSIVpU7iw97hQ/qCKKJMgQ7/+l6R4rx3tILmf0qYKkXCpIxjTE0qNU9N+YNTlH5UimhR+yIMKPo2OqyOn309PUu8hALtYEwkSMYrHCKBA3KpIfcoJQPToiBIJ4Z1pKEJ0Z0o+HCV0nLMsQMWEVy0V/jVlj4eXkVjLJDUlafuwqfvAIIYqcnhJNUv+L9PFvQDA8u1QsliuVstCDIvnRniBmgEiSzOPXvreebuqRYxnSt4cJXQUhhpgJQl/F4qxfDg2D/0xubdGXFCG7aYcEMf0gfP/+/fR7ZjX81H/H8an52aVSuVwmdpTJq0Jfph3yiEUdubdLiC3Hvz/Mh0LPvkbw2xYmoOuyIsbgKkgm02lImSuy5Iu7WVP/IG5sCUPSSgUReih+CEGoIYTfMx/fPPZXczLM1RBwP8oVCUkPPl/dyQHyYT5MxMAN0cf2dKaHziNENwZdQQg7O00xYTE/qCUhH+ixdX6+xQ2REkQJEDFhsQpyLOnxO+Xk5KT3YStA3ahWy+Uq+ZL0aEsQ2Y87u4HQrW4QifG0CBkzA4QbkjMGuOQ1BckQQ/iMVS4KhvwKfOBd8tz0Y4u1kLRDgkhLLEdBTi4u/uN52ArOry5VGeWqpYciidJAZEXuv5JpKjiJzOhTT+cJYmL0s4JsOwqysyMMESWEsjrEf+nGft38fE4FObcTJJ1s08Oq6DxAjk+POwS5IIacXFx/nA2Nda8bEerGbdWkLAvSNl7dqR39kqqB0Oh7T89Jihh9fJjQsYJQQa6adLay9CgWC6Wh3fdO/f38Mxeks4I4bHk7G4gZIMQPzvX1x1XHBfBEiLhxe0vkuL2V7aB+VN1aCNcDagxsfDDPQToypL/3TGQ/aIaI/sGnrAL5Dg9tfHyWBFEriHpMKFeQY6cJS+jBufm4tBoJT1FC4cjs6hJRw4Tmx62UIHYF6SjolQrtGijhA+3pMnluyMbAKoigIU9YxJDCUO57g/9Nqn5wQ5QlrzpjdasgVA/6RfW4vqGvm5sfNz9Mbn/YfnQkiDpkCUkWaNnAr/CAi/qySBCd6WFlSP/vmSiC7NSlAYsZUhi+fW+49XndEuRcCpA0UWQ37XBKeOy6xGpLEK6HZMitKQibr+wKIieIZAd1g/xFGUd0DJxoTo0QM0MGtOQ1yVBDyrYixJDikO1732wyPToSxDxGT3dexDpyDZATdcK6bguQWztApAqiJkhFKIJbuT+5p0sVJE8E4YYMdsIiRX2nJidIgWZIcZguQoz/S1f8UBOk4xhduWbSpYJcqAEiJ4g8YNmKKMzOh9A3fjYT1hIrzyMknzf6+zChoyBXVzV5yKKOFArDU0TG3m2ttwdIUgRI2uki1m/eKog6YikD1g+5pMunINySCBuqwDMchuSUBKE/VEP6d89EEaRZsho6SxD6c2FISufEu8/riiCdpyDpR1WQi7YAaU8QOT6sQ8Iq5HjOWeLVsmoI4ZtiyAAqyBWjpLR0RjE4HPlB/eioINJFXvUQ5MEA8V5B5JLODImEIcdzH4ZYcnA92qesQVQQRtMMEFFCGKGh9OO87RRkV6og9k33I48V5Ka9glA9zAyRdlhIjuHIkDl5i5UXGRIf4JKXC/LlqlGUpyzB81d17odrBXG4iOX1FMS1glhL3qrZQVbnpyDH8ByGWHbkLENy/b5nstOeIF/ogaEZIaYil4Xnvrz46/l6uyDeLmLxpwltQdonLEsR1wpi2hEJ4RNah4mgWGJJM1b+Wz434Anry9WXL3WlgTA/Cperz/qw+puk7EfHPRPPz0q5BsjN9fWNSwVhS95ICOccw8aidUyYlxQxHhJk/0mCMENKIj6KtiGXlwvP+PczlFsXgqy3nRLax+jOCXL6519//XnqWEFOHANEUeT/7F1Na1RpGh2yqOxcJouAixAEqWCCPQQygoiLwQy9uTc46VCkMzAUVS1OmMJYO6nFTaVoamyw2rgIiaNiEqx0GP+Bq4ROCo2x/9C8H/e99/283xWtW8+p2DS9UBrqeJ5zno/XBRRW3yRG7ooWhEoIYUifQl6XIa9fHwgKskM/Xy/MGu/Zth1kQYSQt+I3QT5dHBJcfApREBbyagTk+iQ8MfSNYtqlh0gRzJA+hLy+giAJOTmgBuTAL7GQhnytMGukaGsI8lxQEL/C4nYJPx96+MMY8hopgk36b9fG/wRt8m+6yBLpgfiBGPJD3ywILbEQQ2QLQhnydZ7FZQZdbYKs8PdMxItYSwI/Dg+/6AUkUEH+DKXVN15kKRYE11iIIXtZLhOKBHEZcuxZECYf5OdrzJ14BiREQGQL8ulQwCe9BWEmXaYIqq3g3v0gFFl7e5KCEBHZy3CZUCII4Qcy6rKCEOz/5dLDnFG/wAq0IFU5wzoXCXKuWSb06yslw0L0gNrq28fNPbnEIvxAItKXOROOIKe8BdlhIrJz+Vbd7RAGhLxik7CiF5DDw6faVRC5C0IpAuoxILjyVhYQlyG13/tjQRg/ms0TSUBcDZnfv9xXca+9MwqIOIkl74J8lgnyxWhB5FWpv02CeAxMkaWxIC5Dfsh8zoQjyOMmsiGCQ/cosn+Zu+rjXIGlWJBVQ4ZFLPqFTJCLIAvyhmujXwNrPjAo4CJLtSCEIe29zOdMBIIwG8JRhKC1M3N5f8Hesu0QBdFmWI/0BPmvyYIwAUH0uA4DJQOFUbGRzlOk/XsfKixGEMwQ34FwNRZiSOvSwqypd1p+6CyI7NF1JZbZgngUmYSv3IBhVmdBqIYgI9IvC4I/rg3hQiyiH/jXJYVZfIJlyLBcBVHvNSgm/VMEC3IdLpIMZJKlWhCXIbTMyj7kxfrRbDY/UHoI+oHo0bqsyazvH9oBFoS/96M593OoxrzGi1guRabAnA8gRrQWhDMi2c2ZCBUWIkj3QFYQKiCtVmv+EoLQybd2oIKYj1ZjinwxV1hPdfd+frsD7mNQkyyeH3yNRT59qLCYgqAiS1GQlvvp/2TWSNHIj+fSKkhVt0x4HiogL/g2+nUYShxU3DYpCGXI37MPeR9TfuAiS0iwPIYg7PR7zdCfwdJmWKvCSUXBolOK/HIu9dFNk7xEQWahvBrcsPduW88PZELwr3bmFsQjyOMDv5PO6QelSH/XDK/2bDvUgpBdkIrcJWTb6F6S9Vl7tJpvo0PrfJAxwc3ycvLhSgiiSIqj1fqQlxGkeWyWkJbTz7h35JaOH/KcidAFUdZtf/7ly8X5+cUfvwafHEU/wI/BxpwX8u6JKVaN/KPW/le2FsQnSPMDoYcnIK56uAzpY9x7Y0UiiH6ZUOBHReKHadtWXiYEe56LrFdnQDy0+2JBmt1mV8h4vRqLYme+X1+tCanAMnRB9EfdlwJfXpPX0YEfOcC40ib0FMRlSfunDENeX0BQkaW0QZiAtJy+xb0FqcAyd0FWuS5IJZKAyMuEwI88YDZEQWr1Wjt7C9LFn/eyfuy0fA1ptfoS986sGPmR1T0T1kZ/A/zIR5HVDlYQUmZlZkE8/UAEORFMOm9B8I/T6kPcqxRYegtSrVZ1N3mXQk4qipO84M/zgVFJQVx7zktIvd3LNuRF9Gh2u90PLkNasgWhBGllv6quFFhGC7Kqf5hQfBw9yILAdGJeMC0riFhj1clPO2ML0sUE6e7LEa+gIE7mcS+7ExfUJtS30eWXCUMtyCx8sXKCQuF2kAWhJKnXaz9lGvISBeke60Isp8X44WQc96oFluaeyYqa8rpd9KXoFuR/c9A/zw9G7qp99DZXYNFPvZZdyMsI0j0Q2bHDV1hO1gwZUQusyDd5o7xty1mQO7A8mCcNGRf76LKCUH4ghvSysiCMH+UTtY3OlViYIxk2RKQZrKhX3YUSK+xxdFpf3YGDuznLekNqrLqrIbUH2cyZMIJ0adQrDGIxBWHIrCEy9dbED/3j6JWEj6O/gIA3dxJCs15PQfQCQkUkSwtCXUhLFRDHVxCEbBoi4hZhyDIhpyBLS7G7IBBg5c+GKINYskf3KPIgEwvS7SoSomRYHjI5d3LroR3ZgpCr7joBeRTlcfQ5OA2XP0wE1FecgmD0spgzYfygLkSusAQBcRqN9C3DAn8HK2SZkEzyVoSTio9ivEwIBj2XmDMrCM+Oegn9epCZBUEMea+psAT9aKDPvbR/J2sS3oCXCatqiBX9ZUIwIPnETW0bXRUQzJFeNiEvoke3XBYrLEdSkAalyL10fy3rEl7TMqE7qFiRMqyoj6ODAckpRvltW6MFwfQoEYqkD3l9CREHTRzJgiB+NBrpGiK6hDekC1LVroKEWpDr8E3KK6ajWZB6CQFR5B/xjlabCFLuHotjWI5oQRrYg2CGpGmI6A2Ids5kparbBYlsQZrgz3NuQ0IsCJUQgl76kBcTpNx971r0HbmNzisIYkjihojegITdM6kkeRwdRnhzjMJCO9yCYHq4HKn3Uoe8xIUcs2F3IeT1BcSVkEYjYXmv7YDEXCaM1AWBAivnGDO00VWKMDxIF/JiAUHY35Hb6JyGNJiCICRqGRa0HZCIy4QV0+Po2gqrDAlvzm1ILZIF4RhS+jGlBcE5Fm6n8+u2XIVFQizGkE4nSctQvtIQNmeiX0ePIiDNKfgK5d2GRLcgLtZ6zxKHvExByn6J5dAQS2gTchLSid8ynDEYdNMyodgFqcSZ5P0evkC5tyE3a+EWhKPImkCRJBaE4EOLB88OXkAaHaQh92L+H03t2XZMC7KqbttGUZA3R+DQ84/RwEEsnYLgn14qC4LAb0s5Qi/d1Q8H04P8xGuqX+3ZUQjCWRChC+IqSCQL0gWHPgyYkAUk0IIQBSmtrfV6SUNeigPTGJagIMSGdGK0DAvjRTuqgJjvmUTMsDbgSPVQYFapsQItCOEHRi+5BUE2XZnk5S2IV2CRIqszH5khQfwIfBZEt40e0gU5ugbfneGwIbfD6CFaEJ8jzxJXWMimCxLC6NFQTDomSCdqU300iB/BuyCV4Da6ukxY/iv00IcEI+0ABSnpFYQw5NXaj7FDXob30q6U2gXpNJiCIESyw6PGBkjQ0eqweyYGAdkFhz40GDMKiIYhHj0oThNZkHL3WLpn0tJ0QbgqqzOZlh+Gx9GFew0xuiBnN+B7MzyYDoh5ZX6UeHpgFTmNHfKKNZa4DtJgGVaDFxCEqZT80D+OLgrIUuRlwvI2nGkYJswZLYhMj5JAj7VXCGun8Sss1gpxpJBXLLE4BQllyFgIPwwKop1UDJ3kfbwODn24sGC0ICUpxxIKrFcUy6fxCXKsE5CGkPEKCtIJbqqPR+eH2YKIFVaABdkAhz5sRt1gQUrBCsIIgihyGiPkZTWW0iV0FcThPXojAkMKV4u2HUtAVvl120o13rs5RxasEQ4bxk0WRPXoqoIgiiwvF0/jWBCWY4m7IHyLkFBEkBBzU32qZ8cgyHPhqvuqIcMyW5CyBUNYw4aC2y9U9CNQQV75WMYkKUavsGiN5cjLhL4H6bAuCE8Rw6b6zJ5tx1YQr49eCe2CiPx4vb4OdxqG1KjXtdu2xpCXJwjB/eJpZIKU2To6v0soNQlFE4LHTkZ08dVqPH5EehzdaEFebFgz8G0ZQg0pLNQ0XZDAkFchCKLI/dNoFqRc3tesozvcoIkqINrBrMniQzu2gHj3THRP2wYqCDIgu7AmNZS4orUgqoLoCLK87DMEy0gEfpCgVzpoQrnhSE1CEWPxy6uwq+5V8zLhz/KcyZFlwZrUkGrIeK0e7kGCBWT5PmYI4shJIEG6ftArTmI1HH6SV6Mg6D/wBmDy1koMfhjumcSxIGULHPrwYlpjQUoxLIirIBSnJyEKUm65MyYtSUE4/6FREG4wa/RGNPkIeByd3OStKk/bmizI43VrC4awhtioK/pRj2dBfIJsbm4WkY5oQt6uYEKklNfhOukmhjToV7Qw03toRyVIwD0TxYOYFeSf25YFa1LDjNvhChJsQXwFwRy5v1g8KesEpEs7IeqcCacgJgGho4sjM8UV205AEHkXRHetwbBM+GLDsnZhTWqYMbIQaEHCBYQjyCYlCeLICTvLK3dClLvVlCKdAAtCMH/1Rhx6mB5H13p0swV5emZZFgxhDTfGsrIghCGbuNJ68mSxeHTCawejin5S0fE9iJYe8x8ta/2dHQdB90z0cyY6C4L5AUNYw46JBBZEX2F5DMHAJDmWJUS5OdqQMywtOzDW39qJFCRkmTDgcXQc8FoWOHSIsswCUlqLUWHRGovxA2NzcfHIlxLs0qWbiuqqVEMkh8sOgl5ygiR6HJ3wA9akoBviRVlpMiyXH5sCQZ4sLiIlwVLiasl79Wi1ox91l8iBsBWDIREeRw99mZDwA9akAH6UldaCCBWWi0VEEAqkJccfxEZ6Q9qVoi69oXCDoZgqwxIfR/cEZElvQQg/wKEDiIgsxFOQiBUW1RAG/K8vNz4izM+3Wm6XkOsUzjvziBkGarg4e57CgohP21aWgh5Hp/4DHDrADXu/y8KCcAqi8oNi4+zsbMPF7sfdj9vos/5xfQt9rCjYeJd0zsSoIFoBOaN/HKxJAfywN60FIR5kM5ggmB0uQ3bRD8I2wTrCFkIoQ7Z7qTMs34M8MgxiPXX5AUNYAC7sjdxGNxHEdyBmBfGxS+HxIxpBLOs/D5NaELxMKL27pr1n8mzDTZZhTQrgh70lzSjvWqwuiGpBFjUKcmYgyFY0gmxZZ6uJlgmr6jq6/iYvnr8igDUpAIfZBBnWsp4fgQRhFOH4sR1DQPDf7L0ky4Rs0l24Z6LJsLrMDcGaFEDAXEoLEpEgZ+kqLIKXK0mWCc0e3VeQX4+8PwTWpAAibqeZ5NVVWAYFSU8Qa7udzTLhknTPhMVX4NABmrB3Id4yYfwKa/GlZEG241qQKCISY5lQEpDX277XgSEsgIwr36Voo0ckCMt4k1sQ9wtsDHyD7plUxHsmS2KGdcT9/rAmBVAxVu+vBfEVJF2F5fbV3yVdJpSXpQhYumvBEBbAhPEsLciiWUGShrzycNZKzMfRK+bH0Y+EPx6GsAA6FCb6akH8TmFaC8ISX/VGlmGZUPM4Ot9G//eG8PvCEBbAgOl+WhCmIOktiIdd+ZBD+OPo8j0TLB/S7woOHWDCbLJlwqgKcpaZBfk/e2fz2taVhvHihb2qs1OoA0lcSkoxsRuEQyB1vEljTJdhmI9NkRHqQJkKNFlElmJio4UqzEiLEbYkfGHwLDwLGYw/8CZgvFT0R839/jzn3nPuh/TWPL94W3dhHp73ec9zzuVIRODj6L94P47+r6W+71fimhSIVMhvshOWQARxtlipRBA7US/9W+7j6J6q+3+OAr8PCR3wY8gXz7PaYfkFksKEZUvkZ/mPo+vyWGoEfxsSOgjleVYRxAzpR2lOWPbS15i0RD+Orgvk96Ujxm9CQgcRJvIqQQT5IOAgWQhEDSNL/xN5z8Q2kF+H7FtauCYFohSyKR9BhAxESXXJy7hxuPTf6PdMDANZGnF+B0pYQEAhv2URQd6OsokgHo0on38O/Ti66iC/L424/z9ckwICzGxmKJBsJiznSpVqJJ//xntS8Z+flUbYf45rUkCE+XzqPZO3bz+MMljyclO7svT581/+binklz//49clZdSPCjK4JgWEmMunH0HejrKNIOzab7+v/i9Ffz+uSQFZhaQ3YRkCOcoygiQECR1IKyS1non3GCSjCJLMblDCAuKrLEMhqfVMvAKZ0IQlB65JARly+XQnrLdHWS95k4ESFpBXSIoCUYhPWChhAUnu59PrmZAXCEpYIIZC0lvyupdYFCMIEjqIM2WlF0FGpCMIrkmBZApJLBDSExYSOojHXD6lJa++xJpMzwQJHUyMWVMhiSOIQjmCIKGDhB6SSgQhO2HhmhSIz3w+hZ4JaYGghAUSjVmbqUYQchMWrkmBpApJbCAK4SUvrkmBpLxKQyBEJ6w+rkmB9BQSc8Ia0V3y4poUSIHniZa8hCMIEjpIhe/vZgTBNSmQEl/fySUvrkmBlFZZsw/+FDuCNKhGEJSwQHoSuZ//612bsFDCAikqZC4fSyAfyE5YKGGBVJnZjHOZkGzVHQkdpM2ru9TkxTUpkDrf353LhEjoIAO+vjOXCZHQQRbcz8steRWiS14kdJDRMmvzTrxngmtSIKtl1qs78KQiSlgg46ge81V3GhGki2tSIEMexHm0mlIEwTUpkHEQkXiTl96E9QbXpEDWQeQP/FmQLhI6yD6ICPRMFJoCQUIHkwgieTEDIbfk7SOhg0kwvxkhEKVBMoLgDB1MiCfT/zg6ztABYR7mRQ2EzJK3j5Y7mBxzy1EGQi2C4AgETJRveAJhGMj0I0j3zTz+ZGCi3M+zBdJoEIwgRzgCARNnJcRAaE1YXTz0A6bAgzzXQGgted/gGiGYBjMrnBUvrQmrgQELTImH+TADoSGQLt5pAERMZNSgF0G6b9AxATSSiJbQR64Ri0QEaeBbB2CazM4+cQxkRG7C6i+jYwKmTG6ZNWCR6Jl0hzn8fQCJsK40LAOhE0G6I2ywAAmehBjI9CasEY4IAZUs8ohcBOk2XuKIEBBh/f1eJ6SoOA2BNIYYsAAR/8i9VznoEeqZdBtDlNwBEWZWVX3s7e1pEiEyYY2GGLAAFR6/NwSiSmRMYsn7bjQc4hYhIMLijiOQvWpv+hGkPxwOcYQOiDCnDVimQPYOVDqN6UaQhqoPHKEDKmzs+ARycFAbTy+CdNXxCgEEkGF9xyMQVSIfVTSJTGXCOhpqYMMLyAQQUyDvbQfRBPKxWh73J28gun0Mh3gnDhBhZpUnEPWnMp6wQBq6PIbLeMkdkAkgPIFotLc1iUxsujLsYzjEJSlAhIWdHVshDIFU29V2ZzwZhfQteSCAACrkdsMFoupDZXvcn5x7IIAAQgGEKZADl4PoVNu18btMi1eOPBBAAJ0Asru7GyEQQyJl9aeWlY+os5Wi/jN5iUuEgAjru9ECMeRR1lA10ks9j7xrjBRdHpZCUMECRFjcjRaIOWOZEilvb293UjQSXR2K2z9QwQJkAvoqSyB7HoEYE5YlD00fGqqRJHeS7pEmDl0fim4guki+QwULUAno9WiBeB1k21BITaczjm8lhnPY+nDmK1SwABW+qocLxLPG8jhIzZRIpVZRVTLuy5hJt98YqeLY1/+5JGIYyEucEAIqAb0eEMj7EIG03QKx9aH9qPTUkUsVyrsQpbzrH2nK2DdwxGHJw/AQnBACGswu1qUE0i4HBVIz5dGpdNSfXkel1+u1WuPx4Xi8PzbY1/6pHO4fHh468nA7yNBO6QjogExATyIQa8Sy0CRi6kOnpcqk1Tp0sW+JQ1eGx0EU20FWvkBCB1QCuioPl0B2wgXiXWP5HKRiyaPjlodJUCE+CxnaDoITdECFjXrd6yA7Yg7iCyEBB/FJ5LDltpBDroXoDoIFFqASQNYNefAFchDqINt+B6n45GFbiFshHAexLQQLLECEhWK9GO4gB0EHYa+xah4LsSViT1mqMloBBwlkEE0gWGABKgusYtHtILuxHcQ1Y3EdpMXIIIpvzNL8AxV3QARVH7aD1GXLWIGTwmgHsSYsZ8nrOSU0miYr2F8BGsytFk0HqbMdRKCMZcnDm0E6YRnE5SCK/yRkqHyHBRagwYymD8tBpMtYgYMQTgbpBfa8+56jEN9R+vI8/jCAhj42ijqBNVakQOQcpGcZSMu/xVKCR+lY8AIqmPrwzFgxylgRDtJjHhR6DtNdKyw0FAGVBdZ6oRjmILJlLLaDaP4RcBDPgLXvPkl/iSuEgAjrBVsgxXoaZawa7yg96CCelO72EOgDEGGhULQUIusgZREHcWX0XuhRuuISCQ4IAREeFgp8B4lXxhJ3ECeEGMKwDOQbNHgBjfyxqMmD6yDpHqVHOIijExygAyJo+hB3kMRlrBa/jGWMVrqF4AAdEPGP3JahD4aDJC9jdYJlrB63jKU4ZyHQByCCqg+PQiTKWG3+QYiYgwTXWOZ8BX0AKvpY3SoEHUSojFWthjhI1FG6r4zl7SuuoIAFyOiD7SAJy1gVbp03rIxlVrGgD0BPH4Xwo3S5MlYtss7LKmOZIsENdEBIH5ZCioXQMhb/6biylIO4LMRzDnJoX0qHPgAlfRT8FiJdxirLlbFa/DKWBgrugJR/uCJIIVYZqyxZxurxy1iqg0AfgJY+bAspFjKs8zIyOtNBlnEBBJDRR2nLbSFxy1i+p+PkHcS1xoJ/ABrM5kqGPgrBEasu/rZiNUYZK+RlLORzQITFkuUfLgcppFvGcr1gzXMQbxkL5x+AiH8slkqaQiwP0SVSjFHnDXOQGq+MFXgZy3QQ6AMQ4Zmhj3AHES5jMddYrsdHo1/G0h0E/StAxD80fWgKKfG3WHWhOq/1NlZ0BulEvc57+AT6ADRYN/URw0HYbUWhg5DwMtb+Y/xdAA3/eF0qWQopsRxEqGti+kc1pZexDvEFKUCDmY1S01GIx0Fil7E4H5mSeBkL7zMAGsxtNL3+4VhIrHdNqpIOwnwZC+9fASLk1prNUrPpcZCC70JIRmUsvoMs4/1EQINFTR0BC7H1Ie8gVfG3FTs8B0H9ChDhWVOXh9dAtrYiHUSwjLVdjvO2Io4HARHWmwa+lO5ssQSP0iXLWKFvK7Zw/AFoMPu6OTDl0QyOWFsSDhJ1lB5VxnJbCNZXgMj6am1gCMQOIZ41luekULKM1ZYrY7kcBOsrQCWerw1cA5ZlIeyTQtkyFvsoXaCMhfUVoBLPByqWgwRSOstBJlDGWsHtKEAkfnD0YRoIJ4OIl7HkPnRrKuQx4jkgwfzG8UBXSFPKQcTLWKyQHnWU3nuIPwwgEj+Ojz0O4qx5k7YVnYPCtmQZS40fMBBAIn4cawxcHmIKZCvYViyIv63IWmMJOoj6g/gBaDDz2tZHc8AbscQc5L3c24ohZazePfxhAAlya59cAvEpxH8hxHupMLsyVg+nH4DIePXJ0IcV0ge+DFJidrHkHUSqjLWCciIgMl590tAFchx0EE8GCbaxJMpYbZky1j2Ec0BkvDpzBOLe83LXvFwHkXpbMfChWzuEqHy7iD8MoMDss7OzM4+D2DG9xJFIkZtBYpaxghn9KbZXgARzGxcegbi3WP4bUwVe10S8jCX2mcLKAv4wgEY6X7u4CHGQJlchAQeJFEiV13f3l7F6j3L4wwAa6fzi5CLgIIG6eyCEFAUcROQrbOw1FtI5oMHimioPXSBnlkCOfSG9Geog7htTUWUszUHKrOerK14L+QnVdkDEPk5O2AJpRq2xkpSxQl/G6nRQ3QU0lle5tROeQPxlLMZRunwZy/P6KNNBOpUK7AMQ0cfrm5uTKAcpxXQQ4e94+h0E6QNQsY+bEIH4boRslQJH6THKWOYWq80vYz2CfQAa+nhxc34T7iCD0Jex0nYQTSG1BdgHIEFu7VzThy6QE5dAPnEcxM4g7oPCeGUs77MNbgd5imYioMGz8/MogTghJFjn3UpSxrIcxFfGqvyEe7WAjn2cRzvIwDpJbwYeeE9Sxiq3mSHkHl4VBUTSx9XVlV8gFyEjFuNCyBbn4R+xtxUZDoLpChBhcc3UR6RABv6jdOcsPZDSBctYHAd5hF47oMHM66ur66tz20FuuAJp8h7+8a95Jeq8pkJ8DvItdleATDi/vtJhCeSMl0FKgYMQxp5XrIwVdJBthA9AhLkfr691gZyHC8T77k/J/40pXwZJVsZ6PIc3rwCRcK7Jw1CIgECaYUfp7mMQ+ZexnDrvU9z6AFSmqx9Or69NB7lK4CCMB97jvmvyJXolgAi5H1V56Aq5uhZ2kAGrzltgW4j8y1hfYnUFqOyuXpzqeAVyLuQgTe6n0otJXsZ6hHNzQGe6ury0BHLlZBDmUTr3bcXgy1iFQrw6r6oQuAegJI/TU5eDhAvkk1AGCa/zRpWxnkIegE74uNQJG7Ei6rzcW+kxyljtdvUrbK4AFeZf3DryCHUQ1lH6gF3n9bcVZcpYH+/N49wDkMnml7e3l7deB7kWFUjgTmEwg0iWsdqrCzg1B1SYffHD7a0lkNPTS49A/s/eueu2jawB2KIoWheboixZlg3qVhgWDLhIESCFAzcJXGxBv8IeLPIMW53iVH6DU2x5+lQni9iFi/jFVrJl3ThDzgwpa2R/3y6CBTbiiNJ8+uef+Wf4t3IE+bZYzvtN92SsRUH6PYIHWMOzHrEI8ryUrlKtGCtXTIwgacVY/yX1AIuix4fL+/v7X/cvgnz/IYsgCQshsxzkVrgpfXUlPanWpD8ZWxE+wCY97n9NQ8g8S0+JIMkrhbNqrN+TdoQIBPnPMdO6YFXucf/EUwCZDbG0I8it+SNCFgUhMQfL9Li7u5sa8mthiDWfxfqpXK34l6jWRFLvLlxK/3NA8ACLcBb0mEaQsR9zRUwiyDfZk6DnCyF/CIux/rzukXaARex+uptw/+LIPAn5Pk9CfqoWY8kfwxY74F0UQT5esRUKbGL49W7K/WII+TFdCPmhXWuycqyJ6OCfP8QR5N8fr5jUBav48PXh4eHuYWrI3XyEtTqNpVGtOHvG1O1yDjJP0n8XRZCP48SD2AF2pR4retwtTGONQ8h3swjy12oIER/8sxhBiB1g39jqYcqLIouzWLNaE+1qxYUnhNymH/wziSATOzyCB1gWPB6X9ViNICs5yE/dct5Zubvs4J/nCHI9zsoZWoFtwePx8fFhJYLczyZ6pUvpf6sUYy0/5zYpgny87rEcCJbhf7p8tmMlgrwY8muhGCsWQRSOjrsVFGOJcpDrq8lqILEDrBpaffj6OOE5gjxODZlFkDtpDmJQjDWbxIpHkI9XQ0IH2IY3teNxKYI8PIgXQgwiiNJjCj9+6flEDrA1dkwDyMPTHy9jrIeFCPJrMQfJUox1Gy82ub6ayAFgGbufFuyYhRBxDrI0jbVQrmgcQaZ+XE+GVczmgpV+XK7Y8fLPoiMvOch9bEuhbJ73/0rFWP/6dn31gXVAsJvhp6+XK45IIsisnPeHzlL6/8TFWNdfJm4QOGA78pAXS5YCyDyCGCylS4uxPn+5GvKENNg+2hNNFgdY81KTu5UIYlTO+/l6rAZDKthu/OHEk8v5RO/9PEmfhZDvOsVYnz9/+TJONhhNwRth0pW93bEoE1OeF0ISirFkEeTZi+FEDNyAN2vKWJX28MNEljGXY34IZ7HGhnwe83UixYexFtMFcbJweEdRxXv5D3+3PWfX952YVgAAAAAAAAAAAAAAAAAAAAAAAAAAAAAAAAAAAAAAAAAAAAAAAAAAAAAAAAAAAAAAAAAAAAAAAAAAAAAAAAAAAAAAAAAAAAAAAAAAAAAAAAAAAPB28IO92iJ7fCQAT2qELbfSjVYoJr3EXf3bUZnP0TYOY1+S7o/ewc0qu3bf8n7sDdezXjJojWJuIAiCIMgEp9qMZCAIgrxzQZxGJ4oQBEEQRIR3XowiBEEQBBGydxhFCIIgCCIOH+UoQhAEQRDJ1NUoQhAEQRAJYTFCEARBEMnwKuxGCIIgCCKhquQHgiDI+xSkEUUIgiAIIss/ugiCIAgiY68YIQiCIIgEvxMhCIIgiHrHRhAEQZDZBFaEIAiCIDKCIoIgCIKYDLAOW2HgZ7kSgiDIlgvi1aTBohyM/3c21RAEQbY9glTEenTLvvYbQRAEeXOChGI/KibHlyAIgrw5QcQl7q6zgyAIgiCSDKRk9kYQBEHeWgRxc/QDQRDkrQnii9ZAmh6CIAiCTBAtoheDHQRBEASZIDohLtxBEARBkKccXTDCcncQBEEQ5AnRHNYegiAIgjzTyjWAIAiCvDFB3DwzEARBkLcmSCH2YXU8BEEQBJnm6N3c1ggRBEHeniBBfIRVRRAEQZAptVznsBAEQd6YIIJSd+fVBXErKzTN21+9VKWazyfs16qtUsltHo6abqncqgbe2r9Uv9Yoj1tsVpquW2pVa77phcZvfIn40pdbElPNKojTHvYmDNs5GLTbjyG76snxMmexN9w/FjNIE6S48+qCFPJ7D/G9X43M34u3d96Mn4rULbjVYF1uTJqMd+OO2zBqUeHIfgklc0GcYf2iv9gvT/sX9V6mX9/dG+XAFY8YqpwtXyheidVBkKXvueomnGhRKIVrsCNMaLJTqm2BIEf1vqT/9Qc9b7sFKSDIvKvWSqnnvXTK+caRvXJak51WYLUgu/WD5C44OLJdkOqM+AOlOoEE570Jkvws08XNAfmFkVpTrcWatYL0VPpm/8SzWhCjDyt8X4L45+qnsUajfBQJ1buyW7NSkF5fsR8e1B0E2WJBvEZR79M5rGXWI3C1WnR96wQZ9jV64sEJgmytIKmP+s3UYcVKnmsqGRXPPasE8QeafXH/CEG2UhC/ZPQBFbMsuewVDFocBRYJ0jvV740DD0G2TxCjvpoxiFS7Zk6GtgjSHhh1x34bQbZNEMO++jxHblan47vGLZY9OwQ5M+yPpz0E2SpBHPO++rS+bjLM8kcZWmw6VghizgBBtkiQTH31iZb+7FUhU4OH/nYLcnPhIci2CBJUoszoli/vdTI2WAi2W5CbfQdBtkOQzH31uVdpTc0ExcwNdoLtFuSm7yDINggS5OKH3p7MXNqs+NstyM2+hyD2C+IXopxQz0P8Si4NJmfq9guilocgyEYFcUZRbpyrLp83c2rQ3XJBlOayEGSTgqT31U6zVG6dn7fK7mExlw9LeCrZUotuuRqGtVpYbbkpoSbpNtN3FJYbYsKsgpz1jwf1k3p9cJH2kl6ugqTvKLw4kYAgJn21UK4ujfODhpsoidrx32HSikqzMbnGfOjhV5M2p3Q1lijXsSddtAZ4cbK4Tu716km1jKftPAXxUiNK/ekvxf/dQRAhtYT182JZ1IG80E14zUhhUJ0wgdU5FxnmVOVxpODbJcj+iSAvag/kK+59L0dBdlQEkYMgsWS5k9BXpRlw0CpmWQ6RLtp3GrImvbCSff3lFQTZH8oyvfqZcRryeoJ0ZsS/4G5HQu0tCyLtq8VG4g+bX5JGkdTPSzbASn66sFctmjb4aoIcJCUUTl32srY1gsxhT3pyMlBKHbjsyeaIKilDBkcyq5z6SxRIphMOPUsESStiP/pNEnYQxFJBnE6GHR5eq2s019syLpn3WvozWa8nyFn6fJRzIX7pCYJYKYisw1UCtUbDosFMll80r1PxxCX5RccCQQ6UdniIh1lnHoLYKEggDgFN5XkhSQ1XST+AqGbaYTfD+uQ6BekrdtkTgxCCIBsSRLzD1tWoORRXrHcD3VGdehVXVZi+OJsW5DflHxWhIQcegtgniDiAuHo1uQXN/n6etc2GeRayPkEONE7grWuHEATZjCBl04W+JUOKeiGkkm2tTzIzXdisIKdDjWt4oky9jyDWCSLMltO2WChmBdKb38tYLbIjKT6ubVQQvZOufNGS4RGC2CaIaLDTNTgGTnSdoqcRtXQ369ZMk5h1CbKveZWe5nI6gmxEkMNcNpaPhwwj9foc0dPpC9pncZYMZ3rXJUhb9wYu9GZ6EWQDgniBwSK45Epd1X0anujHX/88FFGD4eYEGWjfwO6pVtk7gmwigpSzVDWlXqrrqy6CFLxcGixvTJBTg2dIHWtphiCbEESwHmH6BDhRui+OC6M8AogwhBQ2JsjA4AZ2teaxEGQDgohGWMaPMT1XzJqdrnGZyDKCssVgU4K0TW5AkIX4CGKTII38AogwhAifaBdmOwkl6etTiURrEaRvdAM9nSQEQTYgiJvPYEc+rxSoWWn2BB5BKCpvSJAToxvwTjV6LoJsQJCO+tqF2dKEoH0vnlx3DR//2jSJf2sRpG12A/Ex1gWCWCRIkNdgR+pbKa9urTgd1tmMIGeGN3CiMVZDkNcXJMxrsCOdeB0padQybE/w/v2NCHJheANH8eliBLFIkPPcBjuyDiu6l25ueU9gMge3DkEGhjfgaHR6BHl9QeJZdSXT/fsqv+hObkuTOztFg0utQ5AT0xs4UK9XRJDXF6SZbwoiGj3VVH72A9P2CgbBaB2CDE1vYF/9Ugjy+oIUTLetyqYtXYUOG5gkDso3vBlBjvITpIcg9gjSyXMVRDxmi78BwWYQ46nlkYHh6xCkbXoDFwhisyDF/LIB2bxrvMMKVkuM22saTIitQ5Bd0xs4Vk9nEOT1BREUqJcyMVLosAiCIFsiiB+tnzKCIAiCyCkhCIIgCBEEQRDECJJ0BEGQBEIEQRAEkeMjCIIgiBRBNS+CIAiCJLSPIAiCIC+34iMIgiCIxhwWgiAIgsx2l3gIgiAIIh1gCXsegiAIgjxt3xXvb0cQBEEQuR8IgiAIMvkkZd0OQRAEQbpl6TZaBEGQ9y5IpxzIW0UQBNkSQTzBwKiSlWapVUvcY44gCPJu96SrgCAIoiVIxSZBQgQxEaSNIOsTZJTfKTi6x/gUNIVCkCf6uZ2L5XHsj8mXbHyOmm5EGJm8XwTpr/NkRQRJf1Fg2Lz2qbcllf0bCJKhV6fxG0ePplLKLREQnFmY/N3Hz3nregiSyoVpf4sPsU7V05l3K4jKaYSmt/NPe+e25CgLxHHigRgTTzknFQ+5sJxKVZ5kLvT9n+YzO7Nb364N0oAzosN1VKL9498NTcP31qju80FmAshF2/kgx67RWz+A9HbCkXx89/waGy053g8gva17LtRWsv9XxFlVswVkU+ua511hQwpqa34B8wAka3QthHS1KPgBRCC0ljuqHMgccdEGNryPNT5AsKujS12n3AIrKpcfQDrtrMnPedToaAa4xJk6IDv1MaFEDPy8dm++5hjop+yZceMApDuNdZaaSzrU6LERCELSeOKAiBzygx6R5XysrofFWVFRAOSCEKrxAUJ9PX4OYOz9h57beLdseoCgD9mNGi0TvVZXiUr6NYDkJikIcCbZQcvDBdwlt9YVARkDiKfuVQKuUSlxPDDAWUCGACTCgDg+QICUKAkJ2dS1xIIKYK31btqAJBJC+6/olzokxKpQd5EHhGaNZHLMSADxgH0ZVN1WhHJWADhVDyocOSA6VkefgISgo5CiexNeWrCCgpwaySh9JIDIDf59f0UssWoPleuJpwxIrD5zBw3JonHvn3YEZCgngwBidS+tqEGAQPNPSCONbbHCuN0LU+DCgzVhQIBpdfTMHeRjITMWad7gllMUAAHyj8VWbsYCyAOqCoIxUgo5WGko1+eBZ7K+HRBXQ4INMEHblKhtU5CDxbV4FUCAh71TgwAJofEfo/teLX2DDVh2YT9hQABvNMXO3N0h884RYxrkpPFzHlUAgZ4WGQQIbODiw1oCGvlGttPDEvLtgMSQU4mdFAkgAw+E75JBPhp/Y6ICINQq5QRvNICAkYCwkfp1raBAsIQMl9b77YCAE37YvwsqQPMUJOQO8sHPV1FREGjaTUTwRgMIuGDXXi30vh+whQun4MHPrh1rooBQcEDBThvmICGB0EuD9aNnbUIJkExO8MYDCCwhtdMfZ1ss+xbuNRgB8YqHmq4gYaqBEFhCmlzAcYngS3sSHpUAoZWU4I0HEHA94pW22KcD8YpR+xMxc5mw6ocmdJKAKOk1PwppXfu+2d6QdeFxQEDgSbMmWBoDCF2hi9y+rnowRn9UkE0PrBqiq/UkAWHo9RtKMpewn9RnddeKcVlBhgSE0dsqMwUQKAPiU0QSi+lML5i11VEBxCZlltl11hMEhBV28UcjQU+p1YKI+faznHXR1hoUEIaEtG7W0RBAWB/thcge8pfCZMEuro40a59TiXrnW5MDJGaNCLYn/uas94aJSAGZnXVl4iGwDq8ICFPwmmdGjQDEWvGsNPmbkdh3Us7PsasY1OUVa7cdP54WIHTPKU3vJrdNHH423l2OJdvemzz6e1UjzC68nxdkYEDYgtc6Ws8oOx2BvzwqQOB8qv99OMdL/Nv65vues+AfP7BDB9fWou9Eg4+n97TYEED6/69Q/Yxrw21VUFyz7J5l1+iZ83+a08EBIT1d+NNGCwj1az3tLDHex2cdT3ZNAYQd8qEKzFwaPU0kV14ZkLvpgDDnepHNllq/2NizAgTO7sECYuV6+BDZvqQMCM/JMgQQwa/Gb6lk4Z51OitAwARodIkyPYQIJcqrAwImnJgFCCNzENWk9wPe0jkBIuZU9tbwW27V+RArqqUBELHOjhoQqkpIqrBfdm3PCZC+SRExQOixUuVDcDe7BkDIsjIdEFUvK1UqjLg5zwkQKuBUClSBXb5/hX7oAYScSuMBUYrUbcV173g1I0BEJFOkTLJSHFIKb9TVAgi5V8YDQnxpT2elvJ5neXMCpF8yheqIW09pPirxs6n0AEKOW+MBIfFBzjy17ODw7RkB0iuZgoX2r6UcHwEi90sTIGSZGw8Ic48H/1tqKmcVv80IkD7JFD2J4igViESYjAddgBAaGQ9Ia0ULtHzEevggVEFEzAOkRzJFAaFWgcYjx52Nqw0QQrPKeEA4Oz3g9Hatx3qE7owAIaGnDshLRAJcdB4hE+b0AdLqZmE8IK2r4wkv3J21b/2L3XQ2gBByO2gApI1ExP2sssCvYWgEhJJ7YDwg7dC2F1KRhT/EzlgEn8YD0nZqpwEQ3n4oVTz0AvJrwjcwHhBKwqQvYk6d21AnN8eP1WwAabvl2uqAtIg8eye08khqtlE3IIScispsQD7MdM82U3vnh2TItvHOcwHktd3AXSgD0rNvsKmKk2T39APyCtcvW9MBafUhbL9c2oVjv6Zk+Bb77nkegHz8W89Z2UqAtB/FygoIkjKI7vJdGwKQX/d9becqYUA23r/tMTpAfr/2+PbwXGf3tnMc10vWIfnCFq4Tz3lbnO1UAyCbVadJd8zt3CrR8oet+HeTf2f3a/HM36uyKattHlyi7Kg2nllFp+ksFmAtj5/tP2Y2g+yAlaCMAAAAAElFTkSuQmCC;" parent="61" vertex="1">
                    <mxGeometry x="104.51999999999998" width="46.97" height="34.23" as="geometry"/>
                </mxCell>
                <mxCell id="29" style="edgeStyle=none;html=1;strokeColor=default;endArrow=none;endFill=0;" parent="1" source="26" target="15" edge="1">
                    <mxGeometry relative="1" as="geometry"/>
                </mxCell>
                <mxCell id="26" value="" style="sketch=0;outlineConnect=0;fontColor=#232F3E;gradientColor=none;fillColor=#4D27AA;strokeColor=none;dashed=0;verticalLabelPosition=bottom;verticalAlign=top;align=center;html=1;fontSize=12;fontStyle=0;aspect=fixed;pointerEvents=1;shape=mxgraph.aws4.internet_gateway;" parent="1" vertex="1">
                    <mxGeometry x="576" y="160" width="58" height="58" as="geometry"/>
                </mxCell>
                <mxCell id="110" style="edgeStyle=none;html=1;strokeColor=#FFB366;" edge="1" parent="1" source="32" target="107">
                    <mxGeometry relative="1" as="geometry"/>
                </mxCell>
                <mxCell id="32" value="Developer" style="sketch=0;outlineConnect=0;fontColor=#232F3E;gradientColor=none;strokeColor=#232F3E;fillColor=#ffffff;dashed=0;verticalLabelPosition=bottom;verticalAlign=top;align=center;html=1;fontSize=12;fontStyle=0;aspect=fixed;shape=mxgraph.aws4.resourceIcon;resIcon=mxgraph.aws4.client;" parent="1" vertex="1">
                    <mxGeometry x="414" y="48" width="36" height="36" as="geometry"/>
                </mxCell>
                <mxCell id="72" value="" style="group" parent="1" vertex="1" connectable="0">
                    <mxGeometry x="680" y="450" width="208" height="90" as="geometry"/>
                </mxCell>
                <mxCell id="73" value="" style="sketch=0;outlineConnect=0;fontColor=#232F3E;gradientColor=none;fillColor=#D45B07;strokeColor=none;dashed=0;verticalLabelPosition=bottom;verticalAlign=top;align=center;html=1;fontSize=12;fontStyle=0;aspect=fixed;pointerEvents=1;shape=mxgraph.aws4.ecs_task;" parent="72" vertex="1">
                    <mxGeometry width="15.42" height="20" as="geometry"/>
                </mxCell>
                <mxCell id="74" value="" style="group" parent="72" vertex="1" connectable="0">
                    <mxGeometry width="208" height="90" as="geometry"/>
                </mxCell>
                <mxCell id="75" value="&lt;div&gt;&lt;span&gt;&amp;nbsp; &amp;nbsp; &amp;nbsp;ECS Task&lt;/span&gt;&lt;/div&gt;" style="outlineConnect=0;gradientColor=none;html=1;whiteSpace=wrap;fontSize=12;fontStyle=0;strokeColor=#FFB366;fillColor=none;verticalAlign=top;align=left;fontColor=#858B94;spacingTop=3;" parent="74" vertex="1">
                    <mxGeometry width="168" height="90" as="geometry"/>
                </mxCell>
                <mxCell id="76" value="color app" style="sketch=0;outlineConnect=0;dashed=0;verticalLabelPosition=bottom;verticalAlign=top;align=center;html=1;fontSize=12;fontStyle=0;aspect=fixed;shape=mxgraph.aws4.resourceIcon;resIcon=mxgraph.aws4.container_1;labelBackgroundColor=none;fillColor=none;" parent="74" vertex="1">
                    <mxGeometry x="22" y="30" width="40" height="40" as="geometry"/>
                </mxCell>
                <mxCell id="77" value="FireLens" style="sketch=0;outlineConnect=0;fontColor=#232F3E;gradientColor=none;strokeColor=#232F3E;fillColor=none;dashed=0;verticalLabelPosition=bottom;verticalAlign=top;align=center;html=1;fontSize=12;fontStyle=0;aspect=fixed;shape=mxgraph.aws4.resourceIcon;resIcon=mxgraph.aws4.container_2;" parent="74" vertex="1">
                    <mxGeometry x="108" y="30" width="40" height="40" as="geometry"/>
                </mxCell>
                <mxCell id="101" value="" style="shape=image;imageAspect=0;aspect=fixed;verticalLabelPosition=bottom;verticalAlign=top;image=data:image/png,iVBORw0KGgoAAAANSUhEUgAAAyAAAAJHCAMAAABfKMIMAAACfFBMVEVHcEwAAAAtg4YAAAAAAAAAAAAtfn8xtKUAAAAAAAAAAAAAAQIAAAAwuZ8dVlcwuZ8CBAgAAAAwuZ4AAAAAAAAAAABNrZQlmLkAAAAwuJ4yt50emcYAAAAAAAAxtJ0wt54xt55WtYkcnccwV5Qco80wuZ4Yn8YwuJ4AAAAimssAAAAhjrUxaKQwtp4Un7cUoLcudq+PwGo1a64ahKweoc9Yq4UvdbIfrtmjx2AeutwestoZmralyF9/unInfbRerYEthsYjnc86a64tUIl4uHWpyV0DrMBhr4EguOIegK0kmcswtJ4EqsAqSX0QHC4AAAAwuZ4AuLtOXKgRiqg6Z7AXhak3dbhEcLc4crYZg6k4b7Ugfao5bLNKZK40gr9IZ7A1gb5eroFksH40h8FarIMxkMZqsntGbbVHarM2ebo1fr02e7tMX6o2d7kdgKo8opU0hcAod6syoJ5DdLoCtLszisMkeqo5abFNp4pCo485oZc2oZpWq4UTiKhQqIgqveZFpI5TqYdKposquuQGrLszjMQUh6gptuJwtHlBd7wnnqgsc6sfnbA9gcNAer4/o5IuoKE0g78rweg/fcBLYawBtrs7hMVHpY0jnawrn6QDsrt1tncpsuAEr7sYnLU+f8IbgakziMI6iMh4t3UzbawwcKword0nqNqDu284aawyjsX///82kM4Um7uTwWg4jMsmodZ+uXI0ldKJvW2AunGXw2aMv2suotuQwGmlyF+fxmIqquExm9Z7uHOrylwlmdGGvG4nseabxGS0zlgjuOskkswkiscgv/EuY6AkhMENpLgrfrQaqqwPt8lhj8jH2OyPrteqw+KDp9R/p9VQofF6AAAATnRSTlMA1wruqJkEGovMWDUvuRF6HmbcunrJJC7gmmJFRvhLyos5Xvx285HlxL1w/l6pzK2BVdzy0tuqpnX65+3X0sF63PX11pWo77TG3uXU25xOnBtFAAA+l0lEQVR42uydz0sjaR7GGw96WGjmZA65WSEQNkyLK0rbIK1eemW9SHAkRBOQxti2EJEmxz0tjTQK0uJJdlDyg1oaDF5ySCAIJlMhMIf5i/b9VVXvm1TFiiZtKj4fo4e5TcaPz/f5vm9lXr0aEqZXtJhurKz97RUAoI1JLZaNcbS1X/B+ANDmh4S+EsVbAoCN4gdiBAC1f7T7QeetlbUxvDMAOAWIGSOv8d4AMKHH3FjBqAVePGuufrBRC40dvGxWYt3RVhAjAIK4shzTV3B+CCBINzBpgZeK9rAeWYIGRQASxF0Quvcdx7sFIIjTNosqksgaa0E4Al4Ya54CRKCthHB8CF4UUQ+CcEcS2UQ8rs2EJ/CmgZfDmOE1QRLMkaw2sxjA2wZeDJq3CsIjhL5yWguKALR0xwChr4SuNaEIQAmxKoiVIcwPgmE03wfx3gHMWEqCSEARgBlL2mHxAJGIa4dQBLz4GUsKkDZB4lmtCUXAyDOudd9hxRwDhAgSj5M5C4qAFz1juQcIw8gTRbDRAqPML/pjKghXhLT1VrO5OIl3EbzICLHvmXQmiEgRncxZzTlcQAGjyljUwzF6RwUxhyxRRZpzuMYIRtUQrfuzIO4VhLO5YRw2G80wPksLjCTjax52WFnXAIlvbpIUISHSDOF5ETCKBLTuFSThtORNSIJsxjdzBgkR7HzBKCaIa0133WG1JQiFzFmNRgM7XzCCTGvdHyZMdJ+wBGTOIoosYqEFRi5DtC4VJJbIdu/oNrlvxJAG2joYNea0Bx5H71jyJpwEISHSIoY0p/COgpFiUnOrIA8ueRVBNjbiRgNVBIwcM1pv90ycA2SDfrGy3oigioARImroLkusmOOSN+4mCOGAlfXGNE5FwOiwrPV0z6RLghBD8qysX+FUBIwM07rhUtK9VxBmhxwi73HNF4wI4x0R0nsFMRPEDhGsfMGoMKdrziNWwmsF4XoIQ1iI1BuNL1j5gpHgdbsgvKI7HKN3SRBLD8LeJgmROuYsMCIz1lxMc7mo2CVBOgYs25CDg408aSL1eiOMfRbwP5Mxpadn3Tt6Iu4WIHKCHBBDSIjUaYpgnwX8z4wSIa5L3oSnCkL9oOSb1JD6e5wbAr8TiMmGiHsmDhWkS4KoAcKgIUIdwZwF/B8h9nn6Q59n4qGCUPbI97dmnbKK+1nA30SlCHH7OJOOhwmVCtIhyMEeYfOQZUg9gkMR4PMIsXa9vTxMaB2jO0xYzJADOmYRGjgUAf6OEN0csqQllrcJq22JpQiyt5dvMUNQ1oHPI0QMWdlsjw8TOix5JUH29w++cUPq03iXgZ8jhA9Zvd/kda4gIkCoI6Kro6wDH7McixlGl47e/SavW4CwDNk/OBQhgo0v8HGE0CErm7X3vB4D5GFB9vdpV6+R10ecrAN/Mk4ihAxZrhexPAaIiyD7LdrVa+QLG1/g3wjRtUdWEHc/hCD7+4fCkCVsfIEfE4S0ED1m6Fm3U5DHVxDOJ3YkghABPo8Qlw/8eVIFYYJ82msxP2q1OkIE+JAZ05BsNtvDw4SOgux1CkIUOeR+1GqzODYE/owQ3XB7FORpFYToQQ1pUD3IN5oI8GeExDT9oQTZfEwFIXZQWs3aLVUEIQL8R5BGSEx76Kaie4B0rSCc/UM2Y1FCeMeB3yLEqiGeHyb0PGGZHAo/ECLAbwRYhDBDvD9M2MuERUntNU1DamgiwEeM80UWOw3x/DBhz4LQJlJDiAA/MikiRM/28DBhLxWERcinlG0IQgT4icUYL+oJTwnymAoiMoQUkWqtVkKIAF8xQY9C6LMh3v6/OY+asFIpmiENlh9V4gjORIB/mIt1GvL0CqLGR4o5wqt6iToSeY03HviD1zGRIcbjK4jzPRMlQqghLWIHmbFK5OcSnhMBPtlkTevMD93QPX2eySN2WEKQFK/qVBHyNY+HDYE/DFk2a0jW0+eZ9C5IyoJUdTJiET9IiuCJdeAPQaI8QWJWDfFY0b1XEJtPDTNBiCK4egJ8wQw3xCrq/bjJ6yJIKtVkHaRaosyiqwMfREiAz1hZYcjTHybsIshZqlmiq94SG7Sw8AV+MGRGNzH69DCha4Bsb6dafMBiGVKKoKuDoWeC3TcxDenDw4TdBNnOcEPEmIWuDoafOepGVufL3kFWkG3KWctOEHR14APGlrkezJA+V5D2ANk+O8u06pIhJXzqCRh2pnmE5NiQNdAKQvwgbNdL1pBVKuJcHQw7y0SNHIuRnJYYWAXZNgU5O2uY+VGmP8L4LwCGmijrIDmaITmtjzd53QTJ2IYU6Qt34MFwY656iSO2IZv9ryAiQDKZs6apB1PE/2PW+GQgGp2mzJHvaDDwzM5PTIXnP8wuLCy8ffv269d7GfJPFhY+hKfwV8k7AaGHkiH9vWeiCmIawhOkXPTxmDUWnF6c2U2n07uE3xhH9OtoP/V+cTrwU496AqF5IsXbwuUd4/7unr4Ef9z/obKAX3zPzDE3mB9WhvThYUKXCpKhNHkDYYaQL1/ePBmLLi4nk8k0Y5cZsmsbcnR0TCCahCZ+hhjFQqFSIVpU7iw97hQ/qCKKJMgQ7/+l6R4rx3tILmf0qYKkXCpIxjTE0qNU9N+YNTlH5UimhR+yIMKPo2OqyOn309PUu8hALtYEwkSMYrHCKBA3KpIfcoJQPToiBIJ4Z1pKEJ0Z0o+HCV0nLMsQMWEVy0V/jVlj4eXkVjLJDUlafuwqfvAIIYqcnhJNUv+L9PFvQDA8u1QsliuVstCDIvnRniBmgEiSzOPXvreebuqRYxnSt4cJXQUhhpgJQl/F4qxfDg2D/0xubdGXFCG7aYcEMf0gfP/+/fR7ZjX81H/H8an52aVSuVwmdpTJq0Jfph3yiEUdubdLiC3Hvz/Mh0LPvkbw2xYmoOuyIsbgKkgm02lImSuy5Iu7WVP/IG5sCUPSSgUReih+CEGoIYTfMx/fPPZXczLM1RBwP8oVCUkPPl/dyQHyYT5MxMAN0cf2dKaHziNENwZdQQg7O00xYTE/qCUhH+ixdX6+xQ2REkQJEDFhsQpyLOnxO+Xk5KT3YStA3ahWy+Uq+ZL0aEsQ2Y87u4HQrW4QifG0CBkzA4QbkjMGuOQ1BckQQ/iMVS4KhvwKfOBd8tz0Y4u1kLRDgkhLLEdBTi4u/uN52ArOry5VGeWqpYciidJAZEXuv5JpKjiJzOhTT+cJYmL0s4JsOwqysyMMESWEsjrEf+nGft38fE4FObcTJJ1s08Oq6DxAjk+POwS5IIacXFx/nA2Nda8bEerGbdWkLAvSNl7dqR39kqqB0Oh7T89Jihh9fJjQsYJQQa6adLay9CgWC6Wh3fdO/f38Mxeks4I4bHk7G4gZIMQPzvX1x1XHBfBEiLhxe0vkuL2V7aB+VN1aCNcDagxsfDDPQToypL/3TGQ/aIaI/sGnrAL5Dg9tfHyWBFEriHpMKFeQY6cJS+jBufm4tBoJT1FC4cjs6hJRw4Tmx62UIHYF6SjolQrtGijhA+3pMnluyMbAKoigIU9YxJDCUO57g/9Nqn5wQ5QlrzpjdasgVA/6RfW4vqGvm5sfNz9Mbn/YfnQkiDpkCUkWaNnAr/CAi/qySBCd6WFlSP/vmSiC7NSlAYsZUhi+fW+49XndEuRcCpA0UWQ37XBKeOy6xGpLEK6HZMitKQibr+wKIieIZAd1g/xFGUd0DJxoTo0QM0MGtOQ1yVBDyrYixJDikO1732wyPToSxDxGT3dexDpyDZATdcK6bguQWztApAqiJkhFKIJbuT+5p0sVJE8E4YYMdsIiRX2nJidIgWZIcZguQoz/S1f8UBOk4xhduWbSpYJcqAEiJ4g8YNmKKMzOh9A3fjYT1hIrzyMknzf6+zChoyBXVzV5yKKOFArDU0TG3m2ttwdIUgRI2uki1m/eKog6YikD1g+5pMunINySCBuqwDMchuSUBKE/VEP6d89EEaRZsho6SxD6c2FISufEu8/riiCdpyDpR1WQi7YAaU8QOT6sQ8Iq5HjOWeLVsmoI4ZtiyAAqyBWjpLR0RjE4HPlB/eioINJFXvUQ5MEA8V5B5JLODImEIcdzH4ZYcnA92qesQVQQRtMMEFFCGKGh9OO87RRkV6og9k33I48V5Ka9glA9zAyRdlhIjuHIkDl5i5UXGRIf4JKXC/LlqlGUpyzB81d17odrBXG4iOX1FMS1glhL3qrZQVbnpyDH8ByGWHbkLENy/b5nstOeIF/ogaEZIaYil4Xnvrz46/l6uyDeLmLxpwltQdonLEsR1wpi2hEJ4RNah4mgWGJJM1b+Wz434Anry9WXL3WlgTA/Cperz/qw+puk7EfHPRPPz0q5BsjN9fWNSwVhS95ICOccw8aidUyYlxQxHhJk/0mCMENKIj6KtiGXlwvP+PczlFsXgqy3nRLax+jOCXL6519//XnqWEFOHANEUeT/7F1Na1RpGh2yqOxcJouAixAEqWCCPQQygoiLwQy9uTc46VCkMzAUVS1OmMJYO6nFTaVoamyw2rgIiaNiEqx0GP+Bq4ROCo2x/9C8H/e99/283xWtW8+p2DS9UBrqeJ5zno/XBRRW3yRG7ooWhEoIYUifQl6XIa9fHwgKskM/Xy/MGu/Zth1kQYSQt+I3QT5dHBJcfApREBbyagTk+iQ8MfSNYtqlh0gRzJA+hLy+giAJOTmgBuTAL7GQhnytMGukaGsI8lxQEL/C4nYJPx96+MMY8hopgk36b9fG/wRt8m+6yBLpgfiBGPJD3ywILbEQQ2QLQhnydZ7FZQZdbYKs8PdMxItYSwI/Dg+/6AUkUEH+DKXVN15kKRYE11iIIXtZLhOKBHEZcuxZECYf5OdrzJ14BiREQGQL8ulQwCe9BWEmXaYIqq3g3v0gFFl7e5KCEBHZy3CZUCII4Qcy6rKCEOz/5dLDnFG/wAq0IFU5wzoXCXKuWSb06yslw0L0gNrq28fNPbnEIvxAItKXOROOIKe8BdlhIrJz+Vbd7RAGhLxik7CiF5DDw6faVRC5C0IpAuoxILjyVhYQlyG13/tjQRg/ms0TSUBcDZnfv9xXca+9MwqIOIkl74J8lgnyxWhB5FWpv02CeAxMkaWxIC5Dfsh8zoQjyOMmsiGCQ/cosn+Zu+rjXIGlWJBVQ4ZFLPqFTJCLIAvyhmujXwNrPjAo4CJLtSCEIe29zOdMBIIwG8JRhKC1M3N5f8Hesu0QBdFmWI/0BPmvyYIwAUH0uA4DJQOFUbGRzlOk/XsfKixGEMwQ34FwNRZiSOvSwqypd1p+6CyI7NF1JZbZgngUmYSv3IBhVmdBqIYgI9IvC4I/rg3hQiyiH/jXJYVZfIJlyLBcBVHvNSgm/VMEC3IdLpIMZJKlWhCXIbTMyj7kxfrRbDY/UHoI+oHo0bqsyazvH9oBFoS/96M593OoxrzGi1guRabAnA8gRrQWhDMi2c2ZCBUWIkj3QFYQKiCtVmv+EoLQybd2oIKYj1ZjinwxV1hPdfd+frsD7mNQkyyeH3yNRT59qLCYgqAiS1GQlvvp/2TWSNHIj+fSKkhVt0x4HiogL/g2+nUYShxU3DYpCGXI37MPeR9TfuAiS0iwPIYg7PR7zdCfwdJmWKvCSUXBolOK/HIu9dFNk7xEQWahvBrcsPduW88PZELwr3bmFsQjyOMDv5PO6QelSH/XDK/2bDvUgpBdkIrcJWTb6F6S9Vl7tJpvo0PrfJAxwc3ycvLhSgiiSIqj1fqQlxGkeWyWkJbTz7h35JaOH/KcidAFUdZtf/7ly8X5+cUfvwafHEU/wI/BxpwX8u6JKVaN/KPW/le2FsQnSPMDoYcnIK56uAzpY9x7Y0UiiH6ZUOBHReKHadtWXiYEe56LrFdnQDy0+2JBmt1mV8h4vRqLYme+X1+tCanAMnRB9EfdlwJfXpPX0YEfOcC40ib0FMRlSfunDENeX0BQkaW0QZiAtJy+xb0FqcAyd0FWuS5IJZKAyMuEwI88YDZEQWr1Wjt7C9LFn/eyfuy0fA1ptfoS986sGPmR1T0T1kZ/A/zIR5HVDlYQUmZlZkE8/UAEORFMOm9B8I/T6kPcqxRYegtSrVZ1N3mXQk4qipO84M/zgVFJQVx7zktIvd3LNuRF9Gh2u90PLkNasgWhBGllv6quFFhGC7Kqf5hQfBw9yILAdGJeMC0riFhj1clPO2ML0sUE6e7LEa+gIE7mcS+7ExfUJtS30eWXCUMtyCx8sXKCQuF2kAWhJKnXaz9lGvISBeke60Isp8X44WQc96oFluaeyYqa8rpd9KXoFuR/c9A/zw9G7qp99DZXYNFPvZZdyMsI0j0Q2bHDV1hO1gwZUQusyDd5o7xty1mQO7A8mCcNGRf76LKCUH4ghvSysiCMH+UTtY3OlViYIxk2RKQZrKhX3YUSK+xxdFpf3YGDuznLekNqrLqrIbUH2cyZMIJ0adQrDGIxBWHIrCEy9dbED/3j6JWEj6O/gIA3dxJCs15PQfQCQkUkSwtCXUhLFRDHVxCEbBoi4hZhyDIhpyBLS7G7IBBg5c+GKINYskf3KPIgEwvS7SoSomRYHjI5d3LroR3ZgpCr7joBeRTlcfQ5OA2XP0wE1FecgmD0spgzYfygLkSusAQBcRqN9C3DAn8HK2SZkEzyVoSTio9ivEwIBj2XmDMrCM+Oegn9epCZBUEMea+psAT9aKDPvbR/J2sS3oCXCatqiBX9ZUIwIPnETW0bXRUQzJFeNiEvoke3XBYrLEdSkAalyL10fy3rEl7TMqE7qFiRMqyoj6ODAckpRvltW6MFwfQoEYqkD3l9CREHTRzJgiB+NBrpGiK6hDekC1LVroKEWpDr8E3KK6ajWZB6CQFR5B/xjlabCFLuHotjWI5oQRrYg2CGpGmI6A2Ids5kparbBYlsQZrgz3NuQ0IsCJUQgl76kBcTpNx971r0HbmNzisIYkjihojegITdM6kkeRwdRnhzjMJCO9yCYHq4HKn3Uoe8xIUcs2F3IeT1BcSVkEYjYXmv7YDEXCaM1AWBAivnGDO00VWKMDxIF/JiAUHY35Hb6JyGNJiCICRqGRa0HZCIy4QV0+Po2gqrDAlvzm1ILZIF4RhS+jGlBcE5Fm6n8+u2XIVFQizGkE4nSctQvtIQNmeiX0ePIiDNKfgK5d2GRLcgLtZ6zxKHvExByn6J5dAQS2gTchLSid8ynDEYdNMyodgFqcSZ5P0evkC5tyE3a+EWhKPImkCRJBaE4EOLB88OXkAaHaQh92L+H03t2XZMC7KqbttGUZA3R+DQ84/RwEEsnYLgn14qC4LAb0s5Qi/d1Q8H04P8xGuqX+3ZUQjCWRChC+IqSCQL0gWHPgyYkAUk0IIQBSmtrfV6SUNeigPTGJagIMSGdGK0DAvjRTuqgJjvmUTMsDbgSPVQYFapsQItCOEHRi+5BUE2XZnk5S2IV2CRIqszH5khQfwIfBZEt40e0gU5ugbfneGwIbfD6CFaEJ8jzxJXWMimCxLC6NFQTDomSCdqU300iB/BuyCV4Da6ukxY/iv00IcEI+0ABSnpFYQw5NXaj7FDXob30q6U2gXpNJiCIESyw6PGBkjQ0eqweyYGAdkFhz40GDMKiIYhHj0oThNZkHL3WLpn0tJ0QbgqqzOZlh+Gx9GFew0xuiBnN+B7MzyYDoh5ZX6UeHpgFTmNHfKKNZa4DtJgGVaDFxCEqZT80D+OLgrIUuRlwvI2nGkYJswZLYhMj5JAj7VXCGun8Sss1gpxpJBXLLE4BQllyFgIPwwKop1UDJ3kfbwODn24sGC0ICUpxxIKrFcUy6fxCXKsE5CGkPEKCtIJbqqPR+eH2YKIFVaABdkAhz5sRt1gQUrBCsIIgihyGiPkZTWW0iV0FcThPXojAkMKV4u2HUtAVvl120o13rs5RxasEQ4bxk0WRPXoqoIgiiwvF0/jWBCWY4m7IHyLkFBEkBBzU32qZ8cgyHPhqvuqIcMyW5CyBUNYw4aC2y9U9CNQQV75WMYkKUavsGiN5cjLhL4H6bAuCE8Rw6b6zJ5tx1YQr49eCe2CiPx4vb4OdxqG1KjXtdu2xpCXJwjB/eJpZIKU2To6v0soNQlFE4LHTkZ08dVqPH5EehzdaEFebFgz8G0ZQg0pLNQ0XZDAkFchCKLI/dNoFqRc3tesozvcoIkqINrBrMniQzu2gHj3THRP2wYqCDIgu7AmNZS4orUgqoLoCLK87DMEy0gEfpCgVzpoQrnhSE1CEWPxy6uwq+5V8zLhz/KcyZFlwZrUkGrIeK0e7kGCBWT5PmYI4shJIEG6ftArTmI1HH6SV6Mg6D/wBmDy1koMfhjumcSxIGULHPrwYlpjQUoxLIirIBSnJyEKUm65MyYtSUE4/6FREG4wa/RGNPkIeByd3OStKk/bmizI43VrC4awhtioK/pRj2dBfIJsbm4WkY5oQt6uYEKklNfhOukmhjToV7Qw03toRyVIwD0TxYOYFeSf25YFa1LDjNvhChJsQXwFwRy5v1g8KesEpEs7IeqcCacgJgGho4sjM8UV205AEHkXRHetwbBM+GLDsnZhTWqYMbIQaEHCBYQjyCYlCeLICTvLK3dClLvVlCKdAAtCMH/1Rhx6mB5H13p0swV5emZZFgxhDTfGsrIghCGbuNJ68mSxeHTCawejin5S0fE9iJYe8x8ta/2dHQdB90z0cyY6C4L5AUNYw46JBBZEX2F5DMHAJDmWJUS5OdqQMywtOzDW39qJFCRkmTDgcXQc8FoWOHSIsswCUlqLUWHRGovxA2NzcfHIlxLs0qWbiuqqVEMkh8sOgl5ygiR6HJ3wA9akoBviRVlpMiyXH5sCQZ4sLiIlwVLiasl79Wi1ox91l8iBsBWDIREeRw99mZDwA9akAH6UldaCCBWWi0VEEAqkJccfxEZ6Q9qVoi69oXCDoZgqwxIfR/cEZElvQQg/wKEDiIgsxFOQiBUW1RAG/K8vNz4izM+3Wm6XkOsUzjvziBkGarg4e57CgohP21aWgh5Hp/4DHDrADXu/y8KCcAqi8oNi4+zsbMPF7sfdj9vos/5xfQt9rCjYeJd0zsSoIFoBOaN/HKxJAfywN60FIR5kM5ggmB0uQ3bRD8I2wTrCFkIoQ7Z7qTMs34M8MgxiPXX5AUNYAC7sjdxGNxHEdyBmBfGxS+HxIxpBLOs/D5NaELxMKL27pr1n8mzDTZZhTQrgh70lzSjvWqwuiGpBFjUKcmYgyFY0gmxZZ6uJlgmr6jq6/iYvnr8igDUpAIfZBBnWsp4fgQRhFOH4sR1DQPDf7L0ky4Rs0l24Z6LJsLrMDcGaFEDAXEoLEpEgZ+kqLIKXK0mWCc0e3VeQX4+8PwTWpAAibqeZ5NVVWAYFSU8Qa7udzTLhknTPhMVX4NABmrB3Id4yYfwKa/GlZEG241qQKCISY5lQEpDX277XgSEsgIwr36Voo0ckCMt4k1sQ9wtsDHyD7plUxHsmS2KGdcT9/rAmBVAxVu+vBfEVJF2F5fbV3yVdJpSXpQhYumvBEBbAhPEsLciiWUGShrzycNZKzMfRK+bH0Y+EPx6GsAA6FCb6akH8TmFaC8ISX/VGlmGZUPM4Ot9G//eG8PvCEBbAgOl+WhCmIOktiIdd+ZBD+OPo8j0TLB/S7woOHWDCbLJlwqgKcpaZBfk/e2fz2taVhvHihb2qs1OoA0lcSkoxsRuEQyB1vEljTJdhmI9NkRHqQJkKNFlElmJio4UqzEiLEbYkfGHwLDwLGYw/8CZgvFT0R839/jzn3nPuh/TWPL94W3dhHp73ec9zzuVIRODj6L94P47+r6W+71fimhSIVMhvshOWQARxtlipRBA7US/9W+7j6J6q+3+OAr8PCR3wY8gXz7PaYfkFksKEZUvkZ/mPo+vyWGoEfxsSOgjleVYRxAzpR2lOWPbS15i0RD+Orgvk96Ujxm9CQgcRJvIqQQT5IOAgWQhEDSNL/xN5z8Q2kF+H7FtauCYFohSyKR9BhAxESXXJy7hxuPTf6PdMDANZGnF+B0pYQEAhv2URQd6OsokgHo0on38O/Ti66iC/L424/z9ckwICzGxmKJBsJiznSpVqJJ//xntS8Z+flUbYf45rUkCE+XzqPZO3bz+MMljyclO7svT581/+binklz//49clZdSPCjK4JgWEmMunH0HejrKNIOzab7+v/i9Ffz+uSQFZhaQ3YRkCOcoygiQECR1IKyS1non3GCSjCJLMblDCAuKrLEMhqfVMvAKZ0IQlB65JARly+XQnrLdHWS95k4ESFpBXSIoCUYhPWChhAUnu59PrmZAXCEpYIIZC0lvyupdYFCMIEjqIM2WlF0FGpCMIrkmBZApJLBDSExYSOojHXD6lJa++xJpMzwQJHUyMWVMhiSOIQjmCIKGDhB6SSgQhO2HhmhSIz3w+hZ4JaYGghAUSjVmbqUYQchMWrkmBpApJbCAK4SUvrkmBpLxKQyBEJ6w+rkmB9BQSc8Ia0V3y4poUSIHniZa8hCMIEjpIhe/vZgTBNSmQEl/fySUvrkmBlFZZsw/+FDuCNKhGEJSwQHoSuZ//612bsFDCAikqZC4fSyAfyE5YKGGBVJnZjHOZkGzVHQkdpM2ru9TkxTUpkDrf353LhEjoIAO+vjOXCZHQQRbcz8steRWiS14kdJDRMmvzTrxngmtSIKtl1qs78KQiSlgg46ge81V3GhGki2tSIEMexHm0mlIEwTUpkHEQkXiTl96E9QbXpEDWQeQP/FmQLhI6yD6ICPRMFJoCQUIHkwgieTEDIbfk7SOhg0kwvxkhEKVBMoLgDB1MiCfT/zg6ztABYR7mRQ2EzJK3j5Y7mBxzy1EGQi2C4AgETJRveAJhGMj0I0j3zTz+ZGCi3M+zBdJoEIwgRzgCARNnJcRAaE1YXTz0A6bAgzzXQGgted/gGiGYBjMrnBUvrQmrgQELTImH+TADoSGQLt5pAERMZNSgF0G6b9AxATSSiJbQR64Ri0QEaeBbB2CazM4+cQxkRG7C6i+jYwKmTG6ZNWCR6Jl0hzn8fQCJsK40LAOhE0G6I2ywAAmehBjI9CasEY4IAZUs8ohcBOk2XuKIEBBh/f1eJ6SoOA2BNIYYsAAR/8i9VznoEeqZdBtDlNwBEWZWVX3s7e1pEiEyYY2GGLAAFR6/NwSiSmRMYsn7bjQc4hYhIMLijiOQvWpv+hGkPxwOcYQOiDCnDVimQPYOVDqN6UaQhqoPHKEDKmzs+ARycFAbTy+CdNXxCgEEkGF9xyMQVSIfVTSJTGXCOhpqYMMLyAQQUyDvbQfRBPKxWh73J28gun0Mh3gnDhBhZpUnEPWnMp6wQBq6PIbLeMkdkAkgPIFotLc1iUxsujLsYzjEJSlAhIWdHVshDIFU29V2ZzwZhfQteSCAACrkdsMFoupDZXvcn5x7IIAAQgGEKZADl4PoVNu18btMi1eOPBBAAJ0Asru7GyEQQyJl9aeWlY+os5Wi/jN5iUuEgAjru9ECMeRR1lA10ks9j7xrjBRdHpZCUMECRFjcjRaIOWOZEilvb293UjQSXR2K2z9QwQJkAvoqSyB7HoEYE5YlD00fGqqRJHeS7pEmDl0fim4guki+QwULUAno9WiBeB1k21BITaczjm8lhnPY+nDmK1SwABW+qocLxLPG8jhIzZRIpVZRVTLuy5hJt98YqeLY1/+5JGIYyEucEAIqAb0eEMj7EIG03QKx9aH9qPTUkUsVyrsQpbzrH2nK2DdwxGHJw/AQnBACGswu1qUE0i4HBVIz5dGpdNSfXkel1+u1WuPx4Xi8PzbY1/6pHO4fHh468nA7yNBO6QjogExATyIQa8Sy0CRi6kOnpcqk1Tp0sW+JQ1eGx0EU20FWvkBCB1QCuioPl0B2wgXiXWP5HKRiyaPjlodJUCE+CxnaDoITdECFjXrd6yA7Yg7iCyEBB/FJ5LDltpBDroXoDoIFFqASQNYNefAFchDqINt+B6n45GFbiFshHAexLQQLLECEhWK9GO4gB0EHYa+xah4LsSViT1mqMloBBwlkEE0gWGABKgusYtHtILuxHcQ1Y3EdpMXIIIpvzNL8AxV3QARVH7aD1GXLWIGTwmgHsSYsZ8nrOSU0miYr2F8BGsytFk0HqbMdRKCMZcnDm0E6YRnE5SCK/yRkqHyHBRagwYymD8tBpMtYgYMQTgbpBfa8+56jEN9R+vI8/jCAhj42ijqBNVakQOQcpGcZSMu/xVKCR+lY8AIqmPrwzFgxylgRDtJjHhR6DtNdKyw0FAGVBdZ6oRjmILJlLLaDaP4RcBDPgLXvPkl/iSuEgAjrBVsgxXoaZawa7yg96CCelO72EOgDEGGhULQUIusgZREHcWX0XuhRuuISCQ4IAREeFgp8B4lXxhJ3ECeEGMKwDOQbNHgBjfyxqMmD6yDpHqVHOIijExygAyJo+hB3kMRlrBa/jGWMVrqF4AAdEPGP3JahD4aDJC9jdYJlrB63jKU4ZyHQByCCqg+PQiTKWG3+QYiYgwTXWOZ8BX0AKvpY3SoEHUSojFWthjhI1FG6r4zl7SuuoIAFyOiD7SAJy1gVbp03rIxlVrGgD0BPH4Xwo3S5MlYtss7LKmOZIsENdEBIH5ZCioXQMhb/6biylIO4LMRzDnJoX0qHPgAlfRT8FiJdxirLlbFa/DKWBgrugJR/uCJIIVYZqyxZxurxy1iqg0AfgJY+bAspFjKs8zIyOtNBlnEBBJDRR2nLbSFxy1i+p+PkHcS1xoJ/ABrM5kqGPgrBEasu/rZiNUYZK+RlLORzQITFkuUfLgcppFvGcr1gzXMQbxkL5x+AiH8slkqaQiwP0SVSjFHnDXOQGq+MFXgZy3QQ6AMQ4Zmhj3AHES5jMddYrsdHo1/G0h0E/StAxD80fWgKKfG3WHWhOq/1NlZ0BulEvc57+AT6ADRYN/URw0HYbUWhg5DwMtb+Y/xdAA3/eF0qWQopsRxEqGti+kc1pZexDvEFKUCDmY1S01GIx0Fil7E4H5mSeBkL7zMAGsxtNL3+4VhIrHdNqpIOwnwZC+9fASLk1prNUrPpcZCC70JIRmUsvoMs4/1EQINFTR0BC7H1Ie8gVfG3FTs8B0H9ChDhWVOXh9dAtrYiHUSwjLVdjvO2Io4HARHWmwa+lO5ssQSP0iXLWKFvK7Zw/AFoMPu6OTDl0QyOWFsSDhJ1lB5VxnJbCNZXgMj6am1gCMQOIZ41luekULKM1ZYrY7kcBOsrQCWerw1cA5ZlIeyTQtkyFvsoXaCMhfUVoBLPByqWgwRSOstBJlDGWsHtKEAkfnD0YRoIJ4OIl7HkPnRrKuQx4jkgwfzG8UBXSFPKQcTLWKyQHnWU3nuIPwwgEj+Ojz0O4qx5k7YVnYPCtmQZS40fMBBAIn4cawxcHmIKZCvYViyIv63IWmMJOoj6g/gBaDDz2tZHc8AbscQc5L3c24ohZazePfxhAAlya59cAvEpxH8hxHupMLsyVg+nH4DIePXJ0IcV0ge+DFJidrHkHUSqjLWCciIgMl590tAFchx0EE8GCbaxJMpYbZky1j2Ec0BkvDpzBOLe83LXvFwHkXpbMfChWzuEqHy7iD8MoMDss7OzM4+D2DG9xJFIkZtBYpaxghn9KbZXgARzGxcegbi3WP4bUwVe10S8jCX2mcLKAv4wgEY6X7u4CHGQJlchAQeJFEiV13f3l7F6j3L4wwAa6fzi5CLgIIG6eyCEFAUcROQrbOw1FtI5oMHimioPXSBnlkCOfSG9Geog7htTUWUszUHKrOerK14L+QnVdkDEPk5O2AJpRq2xkpSxQl/G6nRQ3QU0lle5tROeQPxlLMZRunwZy/P6KNNBOpUK7AMQ0cfrm5uTKAcpxXQQ4e94+h0E6QNQsY+bEIH4boRslQJH6THKWOYWq80vYz2CfQAa+nhxc34T7iCD0Jex0nYQTSG1BdgHIEFu7VzThy6QE5dAPnEcxM4g7oPCeGUs77MNbgd5imYioMGz8/MogTghJFjn3UpSxrIcxFfGqvyEe7WAjn2cRzvIwDpJbwYeeE9Sxiq3mSHkHl4VBUTSx9XVlV8gFyEjFuNCyBbn4R+xtxUZDoLpChBhcc3UR6RABv6jdOcsPZDSBctYHAd5hF47oMHM66ur66tz20FuuAJp8h7+8a95Jeq8pkJ8DvItdleATDi/vtJhCeSMl0FKgYMQxp5XrIwVdJBthA9AhLkfr691gZyHC8T77k/J/40pXwZJVsZ6PIc3rwCRcK7Jw1CIgECaYUfp7mMQ+ZexnDrvU9z6AFSmqx9Or69NB7lK4CCMB97jvmvyJXolgAi5H1V56Aq5uhZ2kAGrzltgW4j8y1hfYnUFqOyuXpzqeAVyLuQgTe6n0otJXsZ6hHNzQGe6ury0BHLlZBDmUTr3bcXgy1iFQrw6r6oQuAegJI/TU5eDhAvkk1AGCa/zRpWxnkIegE74uNQJG7Ei6rzcW+kxyljtdvUrbK4AFeZf3DryCHUQ1lH6gF3n9bcVZcpYH+/N49wDkMnml7e3l7deB7kWFUjgTmEwg0iWsdqrCzg1B1SYffHD7a0lkNPTS49A/s/eueu2jawB2KIoWheboixZlg3qVhgWDLhIESCFAzcJXGxBv8IeLPIMW53iVH6DU2x5+lQni9iFi/jFVrJl3ThDzgwpa2R/3y6CBTbiiNJ8+uef+Wf4t3IE+bZYzvtN92SsRUH6PYIHWMOzHrEI8ryUrlKtGCtXTIwgacVY/yX1AIuix4fL+/v7X/cvgnz/IYsgCQshsxzkVrgpfXUlPanWpD8ZWxE+wCY97n9NQ8g8S0+JIMkrhbNqrN+TdoQIBPnPMdO6YFXucf/EUwCZDbG0I8it+SNCFgUhMQfL9Li7u5sa8mthiDWfxfqpXK34l6jWRFLvLlxK/3NA8ACLcBb0mEaQsR9zRUwiyDfZk6DnCyF/CIux/rzukXaARex+uptw/+LIPAn5Pk9CfqoWY8kfwxY74F0UQT5esRUKbGL49W7K/WII+TFdCPmhXWuycqyJ6OCfP8QR5N8fr5jUBav48PXh4eHuYWrI3XyEtTqNpVGtOHvG1O1yDjJP0n8XRZCP48SD2AF2pR4retwtTGONQ8h3swjy12oIER/8sxhBiB1g39jqYcqLIouzWLNaE+1qxYUnhNymH/wziSATOzyCB1gWPB6X9ViNICs5yE/dct5Zubvs4J/nCHI9zsoZWoFtwePx8fFhJYLczyZ6pUvpf6sUYy0/5zYpgny87rEcCJbhf7p8tmMlgrwY8muhGCsWQRSOjrsVFGOJcpDrq8lqILEDrBpaffj6OOE5gjxODZlFkDtpDmJQjDWbxIpHkI9XQ0IH2IY3teNxKYI8PIgXQgwiiNJjCj9+6flEDrA1dkwDyMPTHy9jrIeFCPJrMQfJUox1Gy82ub6ayAFgGbufFuyYhRBxDrI0jbVQrmgcQaZ+XE+GVczmgpV+XK7Y8fLPoiMvOch9bEuhbJ73/0rFWP/6dn31gXVAsJvhp6+XK45IIsisnPeHzlL6/8TFWNdfJm4QOGA78pAXS5YCyDyCGCylS4uxPn+5GvKENNg+2hNNFgdY81KTu5UIYlTO+/l6rAZDKthu/OHEk8v5RO/9PEmfhZDvOsVYnz9/+TJONhhNwRth0pW93bEoE1OeF0ISirFkEeTZi+FEDNyAN2vKWJX28MNEljGXY34IZ7HGhnwe83UixYexFtMFcbJweEdRxXv5D3+3PWfX952YVgAAAAAAAAAAAAAAAAAAAAAAAAAAAAAAAAAAAAAAAAAAAAAAAAAAAAAAAAAAAAAAAAAAAAAAAAAAAAAAAAAAAAAAAAAAAAAAAAAAAAAAAAAAAPB28IO92iJ7fCQAT2qELbfSjVYoJr3EXf3bUZnP0TYOY1+S7o/ewc0qu3bf8n7sDdezXjJojWJuIAiCIMgEp9qMZCAIgrxzQZxGJ4oQBEEQRIR3XowiBEEQBBGydxhFCIIgCCIOH+UoQhAEQRDJ1NUoQhAEQRAJYTFCEARBEMnwKuxGCIIgCCKhquQHgiDI+xSkEUUIgiAIIss/ugiCIAgiY68YIQiCIIgEvxMhCIIgiHrHRhAEQZDZBFaEIAiCIDKCIoIgCIKYDLAOW2HgZ7kSgiDIlgvi1aTBohyM/3c21RAEQbY9glTEenTLvvYbQRAEeXOChGI/KibHlyAIgrw5QcQl7q6zgyAIgiCSDKRk9kYQBEHeWgRxc/QDQRDkrQnii9ZAmh6CIAiCTBAtoheDHQRBEASZIDohLtxBEARBkKccXTDCcncQBEEQ5AnRHNYegiAIgjzTyjWAIAiCvDFB3DwzEARBkLcmSCH2YXU8BEEQBJnm6N3c1ggRBEHeniBBfIRVRRAEQZAptVznsBAEQd6YIIJSd+fVBXErKzTN21+9VKWazyfs16qtUsltHo6abqncqgbe2r9Uv9Yoj1tsVpquW2pVa77phcZvfIn40pdbElPNKojTHvYmDNs5GLTbjyG76snxMmexN9w/FjNIE6S48+qCFPJ7D/G9X43M34u3d96Mn4rULbjVYF1uTJqMd+OO2zBqUeHIfgklc0GcYf2iv9gvT/sX9V6mX9/dG+XAFY8YqpwtXyheidVBkKXvueomnGhRKIVrsCNMaLJTqm2BIEf1vqT/9Qc9b7sFKSDIvKvWSqnnvXTK+caRvXJak51WYLUgu/WD5C44OLJdkOqM+AOlOoEE570Jkvws08XNAfmFkVpTrcWatYL0VPpm/8SzWhCjDyt8X4L45+qnsUajfBQJ1buyW7NSkF5fsR8e1B0E2WJBvEZR79M5rGXWI3C1WnR96wQZ9jV64sEJgmytIKmP+s3UYcVKnmsqGRXPPasE8QeafXH/CEG2UhC/ZPQBFbMsuewVDFocBRYJ0jvV740DD0G2TxCjvpoxiFS7Zk6GtgjSHhh1x34bQbZNEMO++jxHblan47vGLZY9OwQ5M+yPpz0E2SpBHPO++rS+bjLM8kcZWmw6VghizgBBtkiQTH31iZb+7FUhU4OH/nYLcnPhIci2CBJUoszoli/vdTI2WAi2W5CbfQdBtkOQzH31uVdpTc0ExcwNdoLtFuSm7yDINggS5OKH3p7MXNqs+NstyM2+hyD2C+IXopxQz0P8Si4NJmfq9guilocgyEYFcUZRbpyrLp83c2rQ3XJBlOayEGSTgqT31U6zVG6dn7fK7mExlw9LeCrZUotuuRqGtVpYbbkpoSbpNtN3FJYbYsKsgpz1jwf1k3p9cJH2kl6ugqTvKLw4kYAgJn21UK4ujfODhpsoidrx32HSikqzMbnGfOjhV5M2p3Q1lijXsSddtAZ4cbK4Tu716km1jKftPAXxUiNK/ekvxf/dQRAhtYT182JZ1IG80E14zUhhUJ0wgdU5FxnmVOVxpODbJcj+iSAvag/kK+59L0dBdlQEkYMgsWS5k9BXpRlw0CpmWQ6RLtp3GrImvbCSff3lFQTZH8oyvfqZcRryeoJ0ZsS/4G5HQu0tCyLtq8VG4g+bX5JGkdTPSzbASn66sFctmjb4aoIcJCUUTl32srY1gsxhT3pyMlBKHbjsyeaIKilDBkcyq5z6SxRIphMOPUsESStiP/pNEnYQxFJBnE6GHR5eq2s019syLpn3WvozWa8nyFn6fJRzIX7pCYJYKYisw1UCtUbDosFMll80r1PxxCX5RccCQQ6UdniIh1lnHoLYKEggDgFN5XkhSQ1XST+AqGbaYTfD+uQ6BekrdtkTgxCCIBsSRLzD1tWoORRXrHcD3VGdehVXVZi+OJsW5DflHxWhIQcegtgniDiAuHo1uQXN/n6etc2GeRayPkEONE7grWuHEATZjCBl04W+JUOKeiGkkm2tTzIzXdisIKdDjWt4oky9jyDWCSLMltO2WChmBdKb38tYLbIjKT6ubVQQvZOufNGS4RGC2CaIaLDTNTgGTnSdoqcRtXQ369ZMk5h1CbKveZWe5nI6gmxEkMNcNpaPhwwj9foc0dPpC9pncZYMZ3rXJUhb9wYu9GZ6EWQDgniBwSK45Epd1X0anujHX/88FFGD4eYEGWjfwO6pVtk7gmwigpSzVDWlXqrrqy6CFLxcGixvTJBTg2dIHWtphiCbEESwHmH6BDhRui+OC6M8AogwhBQ2JsjA4AZ2teaxEGQDgohGWMaPMT1XzJqdrnGZyDKCssVgU4K0TW5AkIX4CGKTII38AogwhAifaBdmOwkl6etTiURrEaRvdAM9nSQEQTYgiJvPYEc+rxSoWWn2BB5BKCpvSJAToxvwTjV6LoJsQJCO+tqF2dKEoH0vnlx3DR//2jSJf2sRpG12A/Ex1gWCWCRIkNdgR+pbKa9urTgd1tmMIGeGN3CiMVZDkNcXJMxrsCOdeB0padQybE/w/v2NCHJheANH8eliBLFIkPPcBjuyDiu6l25ueU9gMge3DkEGhjfgaHR6BHl9QeJZdSXT/fsqv+hObkuTOztFg0utQ5AT0xs4UK9XRJDXF6SZbwoiGj3VVH72A9P2CgbBaB2CDE1vYF/9Ugjy+oIUTLetyqYtXYUOG5gkDso3vBlBjvITpIcg9gjSyXMVRDxmi78BwWYQ46nlkYHh6xCkbXoDFwhisyDF/LIB2bxrvMMKVkuM22saTIitQ5Bd0xs4Vk9nEOT1BREUqJcyMVLosAiCIFsiiB+tnzKCIAiCyCkhCIIgCBEEQRDECJJ0BEGQBEIEQRAEkeMjCIIgiBRBNS+CIAiCJLSPIAiCIC+34iMIgiCIxhwWgiAIgsx2l3gIgiAIIh1gCXsegiAIgjxt3xXvb0cQBEEQuR8IgiAIMvkkZd0OQRAEQbpl6TZaBEGQ9y5IpxzIW0UQBNkSQTzBwKiSlWapVUvcY44gCPJu96SrgCAIoiVIxSZBQgQxEaSNIOsTZJTfKTi6x/gUNIVCkCf6uZ2L5XHsj8mXbHyOmm5EGJm8XwTpr/NkRQRJf1Fg2Lz2qbcllf0bCJKhV6fxG0ePplLKLREQnFmY/N3Hz3nregiSyoVpf4sPsU7V05l3K4jKaYSmt/NPe+e25CgLxHHigRgTTzknFQ+5sJxKVZ5kLvT9n+YzO7Nb364N0oAzosN1VKL9498NTcP31qju80FmAshF2/kgx67RWz+A9HbCkXx89/waGy053g8gva17LtRWsv9XxFlVswVkU+ua511hQwpqa34B8wAka3QthHS1KPgBRCC0ljuqHMgccdEGNryPNT5AsKujS12n3AIrKpcfQDrtrMnPedToaAa4xJk6IDv1MaFEDPy8dm++5hjop+yZceMApDuNdZaaSzrU6LERCELSeOKAiBzygx6R5XysrofFWVFRAOSCEKrxAUJ9PX4OYOz9h57beLdseoCgD9mNGi0TvVZXiUr6NYDkJikIcCbZQcvDBdwlt9YVARkDiKfuVQKuUSlxPDDAWUCGACTCgDg+QICUKAkJ2dS1xIIKYK31btqAJBJC+6/olzokxKpQd5EHhGaNZHLMSADxgH0ZVN1WhHJWADhVDyocOSA6VkefgISgo5CiexNeWrCCgpwaySh9JIDIDf59f0UssWoPleuJpwxIrD5zBw3JonHvn3YEZCgngwBidS+tqEGAQPNPSCONbbHCuN0LU+DCgzVhQIBpdfTMHeRjITMWad7gllMUAAHyj8VWbsYCyAOqCoIxUgo5WGko1+eBZ7K+HRBXQ4INMEHblKhtU5CDxbV4FUCAh71TgwAJofEfo/teLX2DDVh2YT9hQABvNMXO3N0h884RYxrkpPFzHlUAgZ4WGQQIbODiw1oCGvlGttPDEvLtgMSQU4mdFAkgAw+E75JBPhp/Y6ICINQq5QRvNICAkYCwkfp1raBAsIQMl9b77YCAE37YvwsqQPMUJOQO8sHPV1FREGjaTUTwRgMIuGDXXi30vh+whQun4MHPrh1rooBQcEDBThvmICGB0EuD9aNnbUIJkExO8MYDCCwhtdMfZ1ss+xbuNRgB8YqHmq4gYaqBEFhCmlzAcYngS3sSHpUAoZWU4I0HEHA94pW22KcD8YpR+xMxc5mw6ocmdJKAKOk1PwppXfu+2d6QdeFxQEDgSbMmWBoDCF2hi9y+rnowRn9UkE0PrBqiq/UkAWHo9RtKMpewn9RnddeKcVlBhgSE0dsqMwUQKAPiU0QSi+lML5i11VEBxCZlltl11hMEhBV28UcjQU+p1YKI+faznHXR1hoUEIaEtG7W0RBAWB/thcge8pfCZMEuro40a59TiXrnW5MDJGaNCLYn/uas94aJSAGZnXVl4iGwDq8ICFPwmmdGjQDEWvGsNPmbkdh3Us7PsasY1OUVa7cdP54WIHTPKU3vJrdNHH423l2OJdvemzz6e1UjzC68nxdkYEDYgtc6Ws8oOx2BvzwqQOB8qv99OMdL/Nv65vues+AfP7BDB9fWou9Eg4+n97TYEED6/69Q/Yxrw21VUFyz7J5l1+iZ83+a08EBIT1d+NNGCwj1az3tLDHex2cdT3ZNAYQd8qEKzFwaPU0kV14ZkLvpgDDnepHNllq/2NizAgTO7sECYuV6+BDZvqQMCM/JMgQQwa/Gb6lk4Z51OitAwARodIkyPYQIJcqrAwImnJgFCCNzENWk9wPe0jkBIuZU9tbwW27V+RArqqUBELHOjhoQqkpIqrBfdm3PCZC+SRExQOixUuVDcDe7BkDIsjIdEFUvK1UqjLg5zwkQKuBUClSBXb5/hX7oAYScSuMBUYrUbcV173g1I0BEJFOkTLJSHFIKb9TVAgi5V8YDQnxpT2elvJ5neXMCpF8yheqIW09pPirxs6n0AEKOW+MBIfFBzjy17ODw7RkB0iuZgoX2r6UcHwEi90sTIGSZGw8Ic48H/1tqKmcVv80IkD7JFD2J4igViESYjAddgBAaGQ9Ia0ULtHzEevggVEFEzAOkRzJFAaFWgcYjx52Nqw0QQrPKeEA4Oz3g9Hatx3qE7owAIaGnDshLRAJcdB4hE+b0AdLqZmE8IK2r4wkv3J21b/2L3XQ2gBByO2gApI1ExP2sssCvYWgEhJJ7YDwg7dC2F1KRhT/EzlgEn8YD0nZqpwEQ3n4oVTz0AvJrwjcwHhBKwqQvYk6d21AnN8eP1WwAabvl2uqAtIg8eye08khqtlE3IIScispsQD7MdM82U3vnh2TItvHOcwHktd3AXSgD0rNvsKmKk2T39APyCtcvW9MBafUhbL9c2oVjv6Zk+Bb77nkegHz8W89Z2UqAtB/FygoIkjKI7vJdGwKQX/d9becqYUA23r/tMTpAfr/2+PbwXGf3tnMc10vWIfnCFq4Tz3lbnO1UAyCbVadJd8zt3CrR8oet+HeTf2f3a/HM36uyKattHlyi7Kg2nllFp+ksFmAtj5/tP2Y2g+yAlaCMAAAAAElFTkSuQmCC;" parent="74" vertex="1">
                    <mxGeometry x="104.51999999999998" width="46.97" height="34.23" as="geometry"/>
                </mxCell>
                <mxCell id="103" value="Private subnet" style="points=[[0,0],[0.25,0],[0.5,0],[0.75,0],[1,0],[1,0.25],[1,0.5],[1,0.75],[1,1],[0.75,1],[0.5,1],[0.25,1],[0,1],[0,0.75],[0,0.5],[0,0.25]];outlineConnect=0;gradientColor=none;html=1;whiteSpace=wrap;fontSize=12;fontStyle=0;container=1;pointerEvents=0;collapsible=0;recursiveResize=0;shape=mxgraph.aws4.group;grIcon=mxgraph.aws4.group_security_group;grStroke=0;strokeColor=#147EBA;fillColor=#E6F2F8;verticalAlign=top;align=left;spacingLeft=30;fontColor=#147EBA;dashed=0;" vertex="1" parent="1">
                    <mxGeometry x="330" y="580" width="550" height="130" as="geometry"/>
                </mxCell>
                <mxCell id="104" value="" style="outlineConnect=0;dashed=0;verticalLabelPosition=bottom;verticalAlign=top;align=center;html=1;shape=mxgraph.aws3.rds_db_instance;fillColor=#2E73B8;gradientColor=none;" vertex="1" parent="1">
                    <mxGeometry x="450" y="620" width="49.5" height="66" as="geometry"/>
                </mxCell>
                <mxCell id="105" value="" style="outlineConnect=0;dashed=0;verticalLabelPosition=bottom;verticalAlign=top;align=center;html=1;shape=mxgraph.aws3.rds_db_instance_read_replica;fillColor=#2E73B8;gradientColor=none;" vertex="1" parent="1">
                    <mxGeometry x="740" y="620" width="49.5" height="66" as="geometry"/>
                </mxCell>
                <mxCell id="106" style="edgeStyle=none;html=1;strokeColor=#FFB366;" edge="1" parent="1" source="59" target="104">
                    <mxGeometry relative="1" as="geometry"/>
                </mxCell>
                <mxCell id="111" style="edgeStyle=none;html=1;strokeColor=#FFB366;" edge="1" parent="1" source="107" target="59">
                    <mxGeometry relative="1" as="geometry"/>
                </mxCell>
                <mxCell id="107" value="" style="sketch=0;points=[[0,0,0],[0.25,0,0],[0.5,0,0],[0.75,0,0],[1,0,0],[0,1,0],[0.25,1,0],[0.5,1,0],[0.75,1,0],[1,1,0],[0,0.25,0],[0,0.5,0],[0,0.75,0],[1,0.25,0],[1,0.5,0],[1,0.75,0]];points=[[0,0,0],[0.25,0,0],[0.5,0,0],[0.75,0,0],[1,0,0],[0,1,0],[0.25,1,0],[0.5,1,0],[0.75,1,0],[1,1,0],[0,0.25,0],[0,0.5,0],[0,0.75,0],[1,0.25,0],[1,0.5,0],[1,0.75,0]];outlineConnect=0;fontColor=#232F3E;gradientColor=#F34482;gradientDirection=north;fillColor=#BC1356;strokeColor=#ffffff;dashed=0;verticalLabelPosition=bottom;verticalAlign=top;align=center;html=1;fontSize=12;fontStyle=0;aspect=fixed;shape=mxgraph.aws4.resourceIcon;resIcon=mxgraph.aws4.systems_manager;" vertex="1" parent="1">
                    <mxGeometry x="405" y="120" width="58" height="58" as="geometry"/>
                </mxCell>
                <mxCell id="109" style="edgeStyle=none;html=1;" edge="1" parent="1" source="108" target="26">
                    <mxGeometry relative="1" as="geometry"/>
                </mxCell>
                <mxCell id="108" value="User" style="sketch=0;outlineConnect=0;fontColor=#232F3E;gradientColor=none;strokeColor=#232F3E;fillColor=#ffffff;dashed=0;verticalLabelPosition=bottom;verticalAlign=top;align=center;html=1;fontSize=12;fontStyle=0;aspect=fixed;shape=mxgraph.aws4.resourceIcon;resIcon=mxgraph.aws4.user;" vertex="1" parent="1">
                    <mxGeometry x="585" y="44" width="40" height="40" as="geometry"/>
                </mxCell>
                <mxCell id="114" value="ssmによるsshトンネリングで接続" style="text;html=1;strokeColor=none;fillColor=none;align=left;verticalAlign=middle;whiteSpace=wrap;rounded=0;" vertex="1" parent="1">
                    <mxGeometry x="525" y="620" width="135" height="50" as="geometry"/>
                </mxCell>
            </root>
        </mxGraphModel>
    </diagram>
</mxfile>